<svg width="24" height="19" viewBox="0 0 24 19" fill="none" xmlns="http://www.w3.org/2000/svg">
<path d="M15.6943 8.16845L10.3921 5.26735C10.0872 5.10052 9.72689 5.10676 9.42806 5.2838C9.12904 5.46104 8.95068 5.77416 8.95068 6.1217V11.8741C8.95068 12.22 9.12796 12.5326 9.42496 12.71C9.58003 12.8026 9.75196 12.8492 9.92428 12.8492C10.0855 12.849 10.2441 12.8086 10.3859 12.7318L15.6883 9.8807C15.8427 9.79767 15.9719 9.67448 16.0621 9.52413C16.1524 9.37377 16.2003 9.20184 16.2009 9.02649C16.2016 8.85109 16.1549 8.67876 16.0658 8.52772C15.9766 8.37667 15.8482 8.25254 15.6943 8.16845ZM10.3571 11.1505V6.85121L14.3199 9.01951L10.3571 11.1505Z" fill="white" fill-opacity="0.7"/>
<path d="M23.8234 4.44266L23.8223 4.43169C23.802 4.23852 23.5996 2.52027 22.7643 1.64629C21.7988 0.618326 20.7041 0.493452 20.1777 0.433593C20.138 0.429203 20.0982 0.424437 20.0585 0.419296L20.0166 0.414936C16.8438 0.184219 12.0521 0.152719 12.0042 0.152531L12 0.152344L11.9957 0.152531C11.9478 0.152719 7.1561 0.184219 3.95469 0.414936L3.91241 0.419296C3.87833 0.42389 3.84078 0.428108 3.79995 0.43289C3.2796 0.492889 2.19669 0.617998 1.22845 1.68309C0.432842 2.54774 0.202874 4.22919 0.179249 4.41814L0.176531 4.44266C0.169359 4.52305 0 6.43671 0 8.35783V10.1537C0 12.0749 0.169359 13.9885 0.176531 14.0691L0.177796 14.0811C0.19814 14.2712 0.400264 15.958 1.23173 16.8323C2.1396 17.8258 3.28747 17.9573 3.90491 18.028C4.0025 18.0391 4.08655 18.0486 4.14383 18.0587L4.19933 18.0664C6.03129 18.2407 11.7751 18.3266 12.0186 18.3301L12.026 18.3303L12.0333 18.3301C12.0812 18.3299 16.8727 18.2984 20.0456 18.0677L20.0875 18.0633C20.1276 18.058 20.1727 18.0532 20.2221 18.0481C20.7396 17.9931 21.8166 17.8791 22.7715 16.8284C23.5671 15.9636 23.7972 14.2821 23.8207 14.0934L23.8234 14.0689C23.8305 13.9883 24.0001 12.0748 24.0001 10.1537V8.35783C23.9999 6.43666 23.8305 4.52323 23.8234 4.44266ZM22.5935 10.1537C22.5935 11.9318 22.4382 13.7631 22.4236 13.9311C22.3639 14.3943 22.1212 15.458 21.7336 15.8794C21.136 16.5369 20.522 16.6021 20.0738 16.6496C20.0238 16.6547 19.9739 16.6603 19.924 16.6664C16.8552 16.8883 12.2444 16.9223 12.032 16.9236C11.7938 16.9202 6.13399 16.8335 4.3579 16.6686C4.26687 16.6537 4.16853 16.6424 4.06494 16.6307C3.53924 16.5704 2.81961 16.488 2.2663 15.8794L2.25327 15.8655C1.87241 15.4687 1.63677 14.4739 1.57687 13.9366C1.56571 13.8096 1.40643 11.9567 1.40643 10.1537V8.35783C1.40643 6.58174 1.56135 4.7525 1.57635 4.58094C1.6476 4.03545 1.89477 3.03608 2.2663 2.63212C2.88224 1.95463 3.53174 1.87959 3.9613 1.82995C4.00231 1.82517 4.04056 1.82081 4.07591 1.81621C7.18942 1.59318 11.8333 1.56004 12 1.55878C12.1666 1.55985 16.8088 1.59318 19.8947 1.81621C19.9326 1.82099 19.974 1.82573 20.0185 1.83088C20.4603 1.88123 21.1281 1.9574 21.741 2.61107L21.7466 2.61712C22.1275 3.01391 22.3631 4.02613 22.423 4.57414C22.4336 4.69409 22.5935 6.55094 22.5935 8.35783V10.1537Z" fill="white" fill-opacity="0.7"/>
</svg>
