<svg width="24" height="25" viewBox="0 0 24 25" fill="none" xmlns="http://www.w3.org/2000/svg">
<mask id="path-1-outside-1_181673_4121" maskUnits="userSpaceOnUse" x="0" y="0.152344" width="24" height="24" fill="black">
<rect fill="white" y="0.152344" width="24" height="24"/>
<path d="M3.61905 1.15234C2.17883 1.15234 1 2.33117 1 3.77139V20.5333C1 21.9735 2.17883 23.1523 3.61905 23.1523H20.381C21.8212 23.1523 23 21.9735 23 20.5333V3.77139C23 2.33117 21.8212 1.15234 20.381 1.15234H3.61905ZM3.61905 2.19996H7.06371C5.25231 4.08469 4.14286 6.55996 4.14286 9.27139C4.14286 12.0797 5.33093 14.6397 7.25911 16.5464C7.18903 16.4796 7.27976 16.5958 7.28878 16.8012C7.2981 17.0132 7.26617 17.3045 7.18034 17.593C7.00868 18.17 6.64963 18.7019 6.07236 18.8943C5.96272 18.9309 5.86823 19.0027 5.80363 19.0985C5.73902 19.1943 5.70791 19.3088 5.71515 19.4241C5.72239 19.5395 5.76756 19.6492 5.84365 19.7362C5.91973 19.8232 6.02244 19.8826 6.13579 19.9051C7.58135 20.1942 8.60386 19.759 9.35742 19.413C10.111 19.0671 10.5182 18.8343 11.2798 19.1419C11.2818 19.1426 11.2839 19.1433 11.2859 19.144C12.7119 19.7014 14.2818 20.0095 15.9286 20.0095C18.1272 20.0095 20.1878 19.4601 21.9524 18.5025V20.5333C21.9524 21.4073 21.2549 22.1047 20.381 22.1047H3.61905C2.74508 22.1047 2.04762 21.4073 2.04762 20.5333V3.77139C2.04762 2.89742 2.74508 2.19996 3.61905 2.19996ZM8.59319 2.19996H20.381C21.2549 2.19996 21.9524 2.89742 21.9524 3.77139V17.2881C20.2379 18.34 18.1677 18.9619 15.9286 18.9619C14.4148 18.9619 12.9762 18.6787 11.6726 18.17C10.5658 17.7229 9.66419 18.1192 8.92057 18.4606C8.51785 18.6455 8.12051 18.7992 7.67141 18.8841C7.8936 18.5673 8.08365 18.2289 8.18397 17.8917C8.30249 17.4933 8.35067 17.1032 8.33538 16.7551C8.32014 16.4082 8.28983 16.0905 7.99675 15.8026L7.99572 15.8016C6.24696 14.0723 5.19048 11.785 5.19048 9.27139C5.19048 6.48337 6.49276 3.97444 8.59319 2.19996ZM16.1823 6.90709C16.0435 6.90926 15.9113 6.96638 15.8147 7.06593C15.718 7.16548 15.6648 7.29931 15.6667 7.43806V12.1523C15.6657 12.2218 15.6785 12.2907 15.7044 12.3551C15.7303 12.4195 15.7687 12.4781 15.8174 12.5276C15.8662 12.577 15.9243 12.6162 15.9883 12.643C16.0523 12.6698 16.1211 12.6836 16.1905 12.6836C16.2599 12.6836 16.3286 12.6698 16.3927 12.643C16.4567 12.6162 16.5148 12.577 16.5635 12.5276C16.6123 12.4781 16.6507 12.4195 16.6766 12.3551C16.7024 12.2907 16.7153 12.2218 16.7143 12.1523V7.43806C16.7152 7.36798 16.7021 7.29842 16.6757 7.2335C16.6493 7.16858 16.6101 7.10961 16.5605 7.0601C16.5109 7.01059 16.4519 6.97154 16.3869 6.94525C16.322 6.91897 16.2524 6.90599 16.1823 6.90709ZM8.33333 7.43806C8.26392 7.43708 8.19501 7.4499 8.1306 7.47578C8.06618 7.50167 8.00756 7.54009 7.95813 7.58883C7.9087 7.63757 7.86944 7.69565 7.84265 7.75968C7.81586 7.82372 7.80206 7.89245 7.80206 7.96187C7.80206 8.03129 7.81586 8.10001 7.84265 8.16405C7.86944 8.22809 7.9087 8.28617 7.95813 8.3349C8.00756 8.38364 8.06618 8.42207 8.1306 8.44795C8.19501 8.47384 8.26392 8.48666 8.33333 8.48568H10.0081L7.88932 11.8751C7.83989 11.9544 7.81255 12.0454 7.81015 12.1388C7.80774 12.2322 7.83036 12.3245 7.87565 12.4063C7.92094 12.488 7.98726 12.5561 8.06773 12.6035C8.14821 12.651 8.23991 12.6761 8.33333 12.6762H10.9524C11.0218 12.6771 11.0907 12.6643 11.1551 12.6384C11.2195 12.6125 11.2782 12.5741 11.3276 12.5254C11.377 12.4766 11.4163 12.4186 11.4431 12.3545C11.4699 12.2905 11.4837 12.2218 11.4837 12.1523C11.4837 12.0829 11.4699 12.0142 11.4431 11.9502C11.4163 11.8861 11.377 11.828 11.3276 11.7793C11.2782 11.7306 11.2195 11.6921 11.1551 11.6663C11.0907 11.6404 11.0218 11.6276 10.9524 11.6285H9.27762L11.3964 8.23912C11.4458 8.15984 11.4732 8.06879 11.4756 7.9754C11.478 7.88201 11.4554 7.78967 11.4101 7.70796C11.3648 7.62625 11.2985 7.55813 11.218 7.51068C11.1375 7.46322 11.0458 7.43815 10.9524 7.43806H8.33333ZM14.6109 9.00233C14.5249 9.00384 14.4407 9.02647 14.3656 9.06822C14.2905 9.10997 14.2268 9.16955 14.1802 9.24172C13.9195 9.0986 13.6256 9.00949 13.3095 9.00949C12.3032 9.00949 11.4762 9.8365 11.4762 10.8428C11.4762 11.8491 12.3032 12.6762 13.3095 12.6762C13.6253 12.6762 13.9187 12.5868 14.1791 12.4439C14.2409 12.5394 14.3319 12.6122 14.4387 12.6513C14.5454 12.6904 14.6619 12.6938 14.7707 12.6609C14.8795 12.628 14.9747 12.5606 15.0418 12.4688C15.1089 12.3771 15.1444 12.266 15.1429 12.1523V10.8428V9.5333C15.1438 9.46322 15.1307 9.39366 15.1043 9.32874C15.0779 9.26381 15.0387 9.20485 14.9891 9.15534C14.9395 9.10583 14.8805 9.06678 14.8155 9.04049C14.7505 9.01421 14.6809 9.00123 14.6109 9.00233ZM19.0714 9.00949C18.0651 9.00949 17.2381 9.8365 17.2381 10.8428C17.2381 11.8491 18.0651 12.6762 19.0714 12.6762C20.0777 12.6762 20.9048 11.8491 20.9048 10.8428C20.9048 9.8365 20.0777 9.00949 19.0714 9.00949ZM13.3095 10.0571C13.7497 10.0571 14.0952 10.4027 14.0952 10.8428C14.0952 11.283 13.7497 11.6285 13.3095 11.6285C12.8694 11.6285 12.5238 11.283 12.5238 10.8428C12.5238 10.4027 12.8694 10.0571 13.3095 10.0571ZM19.0714 10.0571C19.5116 10.0571 19.8571 10.4027 19.8571 10.8428C19.8571 11.283 19.5116 11.6285 19.0714 11.6285C18.6313 11.6285 18.2857 11.283 18.2857 10.8428C18.2857 10.4027 18.6313 10.0571 19.0714 10.0571Z"/>
</mask>
<path d="M3.61905 1.15234C2.17883 1.15234 1 2.33117 1 3.77139V20.5333C1 21.9735 2.17883 23.1523 3.61905 23.1523H20.381C21.8212 23.1523 23 21.9735 23 20.5333V3.77139C23 2.33117 21.8212 1.15234 20.381 1.15234H3.61905ZM3.61905 2.19996H7.06371C5.25231 4.08469 4.14286 6.55996 4.14286 9.27139C4.14286 12.0797 5.33093 14.6397 7.25911 16.5464C7.18903 16.4796 7.27976 16.5958 7.28878 16.8012C7.2981 17.0132 7.26617 17.3045 7.18034 17.593C7.00868 18.17 6.64963 18.7019 6.07236 18.8943C5.96272 18.9309 5.86823 19.0027 5.80363 19.0985C5.73902 19.1943 5.70791 19.3088 5.71515 19.4241C5.72239 19.5395 5.76756 19.6492 5.84365 19.7362C5.91973 19.8232 6.02244 19.8826 6.13579 19.9051C7.58135 20.1942 8.60386 19.759 9.35742 19.413C10.111 19.0671 10.5182 18.8343 11.2798 19.1419C11.2818 19.1426 11.2839 19.1433 11.2859 19.144C12.7119 19.7014 14.2818 20.0095 15.9286 20.0095C18.1272 20.0095 20.1878 19.4601 21.9524 18.5025V20.5333C21.9524 21.4073 21.2549 22.1047 20.381 22.1047H3.61905C2.74508 22.1047 2.04762 21.4073 2.04762 20.5333V3.77139C2.04762 2.89742 2.74508 2.19996 3.61905 2.19996ZM8.59319 2.19996H20.381C21.2549 2.19996 21.9524 2.89742 21.9524 3.77139V17.2881C20.2379 18.34 18.1677 18.9619 15.9286 18.9619C14.4148 18.9619 12.9762 18.6787 11.6726 18.17C10.5658 17.7229 9.66419 18.1192 8.92057 18.4606C8.51785 18.6455 8.12051 18.7992 7.67141 18.8841C7.8936 18.5673 8.08365 18.2289 8.18397 17.8917C8.30249 17.4933 8.35067 17.1032 8.33538 16.7551C8.32014 16.4082 8.28983 16.0905 7.99675 15.8026L7.99572 15.8016C6.24696 14.0723 5.19048 11.785 5.19048 9.27139C5.19048 6.48337 6.49276 3.97444 8.59319 2.19996ZM16.1823 6.90709C16.0435 6.90926 15.9113 6.96638 15.8147 7.06593C15.718 7.16548 15.6648 7.29931 15.6667 7.43806V12.1523C15.6657 12.2218 15.6785 12.2907 15.7044 12.3551C15.7303 12.4195 15.7687 12.4781 15.8174 12.5276C15.8662 12.577 15.9243 12.6162 15.9883 12.643C16.0523 12.6698 16.1211 12.6836 16.1905 12.6836C16.2599 12.6836 16.3286 12.6698 16.3927 12.643C16.4567 12.6162 16.5148 12.577 16.5635 12.5276C16.6123 12.4781 16.6507 12.4195 16.6766 12.3551C16.7024 12.2907 16.7153 12.2218 16.7143 12.1523V7.43806C16.7152 7.36798 16.7021 7.29842 16.6757 7.2335C16.6493 7.16858 16.6101 7.10961 16.5605 7.0601C16.5109 7.01059 16.4519 6.97154 16.3869 6.94525C16.322 6.91897 16.2524 6.90599 16.1823 6.90709ZM8.33333 7.43806C8.26392 7.43708 8.19501 7.4499 8.1306 7.47578C8.06618 7.50167 8.00756 7.54009 7.95813 7.58883C7.9087 7.63757 7.86944 7.69565 7.84265 7.75968C7.81586 7.82372 7.80206 7.89245 7.80206 7.96187C7.80206 8.03129 7.81586 8.10001 7.84265 8.16405C7.86944 8.22809 7.9087 8.28617 7.95813 8.3349C8.00756 8.38364 8.06618 8.42207 8.1306 8.44795C8.19501 8.47384 8.26392 8.48666 8.33333 8.48568H10.0081L7.88932 11.8751C7.83989 11.9544 7.81255 12.0454 7.81015 12.1388C7.80774 12.2322 7.83036 12.3245 7.87565 12.4063C7.92094 12.488 7.98726 12.5561 8.06773 12.6035C8.14821 12.651 8.23991 12.6761 8.33333 12.6762H10.9524C11.0218 12.6771 11.0907 12.6643 11.1551 12.6384C11.2195 12.6125 11.2782 12.5741 11.3276 12.5254C11.377 12.4766 11.4163 12.4186 11.4431 12.3545C11.4699 12.2905 11.4837 12.2218 11.4837 12.1523C11.4837 12.0829 11.4699 12.0142 11.4431 11.9502C11.4163 11.8861 11.377 11.828 11.3276 11.7793C11.2782 11.7306 11.2195 11.6921 11.1551 11.6663C11.0907 11.6404 11.0218 11.6276 10.9524 11.6285H9.27762L11.3964 8.23912C11.4458 8.15984 11.4732 8.06879 11.4756 7.9754C11.478 7.88201 11.4554 7.78967 11.4101 7.70796C11.3648 7.62625 11.2985 7.55813 11.218 7.51068C11.1375 7.46322 11.0458 7.43815 10.9524 7.43806H8.33333ZM14.6109 9.00233C14.5249 9.00384 14.4407 9.02647 14.3656 9.06822C14.2905 9.10997 14.2268 9.16955 14.1802 9.24172C13.9195 9.0986 13.6256 9.00949 13.3095 9.00949C12.3032 9.00949 11.4762 9.8365 11.4762 10.8428C11.4762 11.8491 12.3032 12.6762 13.3095 12.6762C13.6253 12.6762 13.9187 12.5868 14.1791 12.4439C14.2409 12.5394 14.3319 12.6122 14.4387 12.6513C14.5454 12.6904 14.6619 12.6938 14.7707 12.6609C14.8795 12.628 14.9747 12.5606 15.0418 12.4688C15.1089 12.3771 15.1444 12.266 15.1429 12.1523V10.8428V9.5333C15.1438 9.46322 15.1307 9.39366 15.1043 9.32874C15.0779 9.26381 15.0387 9.20485 14.9891 9.15534C14.9395 9.10583 14.8805 9.06678 14.8155 9.04049C14.7505 9.01421 14.6809 9.00123 14.6109 9.00233ZM19.0714 9.00949C18.0651 9.00949 17.2381 9.8365 17.2381 10.8428C17.2381 11.8491 18.0651 12.6762 19.0714 12.6762C20.0777 12.6762 20.9048 11.8491 20.9048 10.8428C20.9048 9.8365 20.0777 9.00949 19.0714 9.00949ZM13.3095 10.0571C13.7497 10.0571 14.0952 10.4027 14.0952 10.8428C14.0952 11.283 13.7497 11.6285 13.3095 11.6285C12.8694 11.6285 12.5238 11.283 12.5238 10.8428C12.5238 10.4027 12.8694 10.0571 13.3095 10.0571ZM19.0714 10.0571C19.5116 10.0571 19.8571 10.4027 19.8571 10.8428C19.8571 11.283 19.5116 11.6285 19.0714 11.6285C18.6313 11.6285 18.2857 11.283 18.2857 10.8428C18.2857 10.4027 18.6313 10.0571 19.0714 10.0571Z" fill="white" fill-opacity="0.7"/>
<path d="M3.61905 1.15234C2.17883 1.15234 1 2.33117 1 3.77139V20.5333C1 21.9735 2.17883 23.1523 3.61905 23.1523H20.381C21.8212 23.1523 23 21.9735 23 20.5333V3.77139C23 2.33117 21.8212 1.15234 20.381 1.15234H3.61905ZM3.61905 2.19996H7.06371C5.25231 4.08469 4.14286 6.55996 4.14286 9.27139C4.14286 12.0797 5.33093 14.6397 7.25911 16.5464C7.18903 16.4796 7.27976 16.5958 7.28878 16.8012C7.2981 17.0132 7.26617 17.3045 7.18034 17.593C7.00868 18.17 6.64963 18.7019 6.07236 18.8943C5.96272 18.9309 5.86823 19.0027 5.80363 19.0985C5.73902 19.1943 5.70791 19.3088 5.71515 19.4241C5.72239 19.5395 5.76756 19.6492 5.84365 19.7362C5.91973 19.8232 6.02244 19.8826 6.13579 19.9051C7.58135 20.1942 8.60386 19.759 9.35742 19.413C10.111 19.0671 10.5182 18.8343 11.2798 19.1419C11.2818 19.1426 11.2839 19.1433 11.2859 19.144C12.7119 19.7014 14.2818 20.0095 15.9286 20.0095C18.1272 20.0095 20.1878 19.4601 21.9524 18.5025V20.5333C21.9524 21.4073 21.2549 22.1047 20.381 22.1047H3.61905C2.74508 22.1047 2.04762 21.4073 2.04762 20.5333V3.77139C2.04762 2.89742 2.74508 2.19996 3.61905 2.19996ZM8.59319 2.19996H20.381C21.2549 2.19996 21.9524 2.89742 21.9524 3.77139V17.2881C20.2379 18.34 18.1677 18.9619 15.9286 18.9619C14.4148 18.9619 12.9762 18.6787 11.6726 18.17C10.5658 17.7229 9.66419 18.1192 8.92057 18.4606C8.51785 18.6455 8.12051 18.7992 7.67141 18.8841C7.8936 18.5673 8.08365 18.2289 8.18397 17.8917C8.30249 17.4933 8.35067 17.1032 8.33538 16.7551C8.32014 16.4082 8.28983 16.0905 7.99675 15.8026L7.99572 15.8016C6.24696 14.0723 5.19048 11.785 5.19048 9.27139C5.19048 6.48337 6.49276 3.97444 8.59319 2.19996ZM16.1823 6.90709C16.0435 6.90926 15.9113 6.96638 15.8147 7.06593C15.718 7.16548 15.6648 7.29931 15.6667 7.43806V12.1523C15.6657 12.2218 15.6785 12.2907 15.7044 12.3551C15.7303 12.4195 15.7687 12.4781 15.8174 12.5276C15.8662 12.577 15.9243 12.6162 15.9883 12.643C16.0523 12.6698 16.1211 12.6836 16.1905 12.6836C16.2599 12.6836 16.3286 12.6698 16.3927 12.643C16.4567 12.6162 16.5148 12.577 16.5635 12.5276C16.6123 12.4781 16.6507 12.4195 16.6766 12.3551C16.7024 12.2907 16.7153 12.2218 16.7143 12.1523V7.43806C16.7152 7.36798 16.7021 7.29842 16.6757 7.2335C16.6493 7.16858 16.6101 7.10961 16.5605 7.0601C16.5109 7.01059 16.4519 6.97154 16.3869 6.94525C16.322 6.91897 16.2524 6.90599 16.1823 6.90709ZM8.33333 7.43806C8.26392 7.43708 8.19501 7.4499 8.1306 7.47578C8.06618 7.50167 8.00756 7.54009 7.95813 7.58883C7.9087 7.63757 7.86944 7.69565 7.84265 7.75968C7.81586 7.82372 7.80206 7.89245 7.80206 7.96187C7.80206 8.03129 7.81586 8.10001 7.84265 8.16405C7.86944 8.22809 7.9087 8.28617 7.95813 8.3349C8.00756 8.38364 8.06618 8.42207 8.1306 8.44795C8.19501 8.47384 8.26392 8.48666 8.33333 8.48568H10.0081L7.88932 11.8751C7.83989 11.9544 7.81255 12.0454 7.81015 12.1388C7.80774 12.2322 7.83036 12.3245 7.87565 12.4063C7.92094 12.488 7.98726 12.5561 8.06773 12.6035C8.14821 12.651 8.23991 12.6761 8.33333 12.6762H10.9524C11.0218 12.6771 11.0907 12.6643 11.1551 12.6384C11.2195 12.6125 11.2782 12.5741 11.3276 12.5254C11.377 12.4766 11.4163 12.4186 11.4431 12.3545C11.4699 12.2905 11.4837 12.2218 11.4837 12.1523C11.4837 12.0829 11.4699 12.0142 11.4431 11.9502C11.4163 11.8861 11.377 11.828 11.3276 11.7793C11.2782 11.7306 11.2195 11.6921 11.1551 11.6663C11.0907 11.6404 11.0218 11.6276 10.9524 11.6285H9.27762L11.3964 8.23912C11.4458 8.15984 11.4732 8.06879 11.4756 7.9754C11.478 7.88201 11.4554 7.78967 11.4101 7.70796C11.3648 7.62625 11.2985 7.55813 11.218 7.51068C11.1375 7.46322 11.0458 7.43815 10.9524 7.43806H8.33333ZM14.6109 9.00233C14.5249 9.00384 14.4407 9.02647 14.3656 9.06822C14.2905 9.10997 14.2268 9.16955 14.1802 9.24172C13.9195 9.0986 13.6256 9.00949 13.3095 9.00949C12.3032 9.00949 11.4762 9.8365 11.4762 10.8428C11.4762 11.8491 12.3032 12.6762 13.3095 12.6762C13.6253 12.6762 13.9187 12.5868 14.1791 12.4439C14.2409 12.5394 14.3319 12.6122 14.4387 12.6513C14.5454 12.6904 14.6619 12.6938 14.7707 12.6609C14.8795 12.628 14.9747 12.5606 15.0418 12.4688C15.1089 12.3771 15.1444 12.266 15.1429 12.1523V10.8428V9.5333C15.1438 9.46322 15.1307 9.39366 15.1043 9.32874C15.0779 9.26381 15.0387 9.20485 14.9891 9.15534C14.9395 9.10583 14.8805 9.06678 14.8155 9.04049C14.7505 9.01421 14.6809 9.00123 14.6109 9.00233ZM19.0714 9.00949C18.0651 9.00949 17.2381 9.8365 17.2381 10.8428C17.2381 11.8491 18.0651 12.6762 19.0714 12.6762C20.0777 12.6762 20.9048 11.8491 20.9048 10.8428C20.9048 9.8365 20.0777 9.00949 19.0714 9.00949ZM13.3095 10.0571C13.7497 10.0571 14.0952 10.4027 14.0952 10.8428C14.0952 11.283 13.7497 11.6285 13.3095 11.6285C12.8694 11.6285 12.5238 11.283 12.5238 10.8428C12.5238 10.4027 12.8694 10.0571 13.3095 10.0571ZM19.0714 10.0571C19.5116 10.0571 19.8571 10.4027 19.8571 10.8428C19.8571 11.283 19.5116 11.6285 19.0714 11.6285C18.6313 11.6285 18.2857 11.283 18.2857 10.8428C18.2857 10.4027 18.6313 10.0571 19.0714 10.0571Z" stroke="white" stroke-opacity="0.7" stroke-width="0.2" mask="url(#path-1-outside-1_181673_4121)"/>
</svg>
