<svg width="24" height="24" viewBox="0 0 24 24" fill="none" xmlns="http://www.w3.org/2000/svg">
<path d="M22 4.662V19.338C22 20.256 21.288 21 20.417 21H3.583C2.709 21 2 20.256 2 19.338V4.662C2 3.744 2.709 3 3.583 3H20.417C21.288 3 22 3.744 22 4.662ZM21 18.762V5.99999H3V18.761C3 18.911 3.126 19.032 3.283 19.032H20.72C20.874 19.032 21 18.912 21 18.762ZM17.912 4.486C17.9119 4.42857 17.9004 4.37174 17.8782 4.31876C17.8561 4.26578 17.8237 4.2177 17.7829 4.17728C17.7421 4.13686 17.6937 4.1049 17.6405 4.08323C17.5874 4.06155 17.5304 4.0506 17.473 4.051C17.3576 4.051 17.247 4.09683 17.1654 4.17841C17.0838 4.25998 17.038 4.37063 17.038 4.486C17.038 4.60137 17.0838 4.71201 17.1654 4.79359C17.247 4.87517 17.3576 4.921 17.473 4.921C17.714 4.921 17.912 4.725 17.912 4.486ZM19.812 4.486C19.812 4.60216 19.8581 4.71357 19.9403 4.79571C20.0224 4.87785 20.1338 4.924 20.25 4.924C20.3662 4.924 20.4776 4.87785 20.5597 4.79571C20.6419 4.71357 20.688 4.60216 20.688 4.486C20.688 4.42853 20.6766 4.37164 20.6545 4.3186C20.6324 4.26556 20.6 4.21743 20.5592 4.17698C20.5184 4.13654 20.4699 4.10458 20.4167 4.08295C20.3635 4.06133 20.3065 4.05047 20.249 4.051C20.1917 4.05073 20.1348 4.06178 20.0818 4.08352C20.0287 4.10525 19.9804 4.13723 19.9398 4.17764C19.8991 4.21804 19.8668 4.26608 19.8447 4.31899C19.8226 4.3719 19.8121 4.42866 19.812 4.486ZM19.3 4.486C19.2999 4.42857 19.2884 4.37174 19.2662 4.31876C19.2441 4.26578 19.2117 4.2177 19.1709 4.17728C19.1301 4.13686 19.0817 4.1049 19.0285 4.08323C18.9754 4.06155 18.9184 4.0506 18.861 4.051C18.7456 4.051 18.635 4.09683 18.5534 4.17841C18.4718 4.25998 18.426 4.37063 18.426 4.486C18.426 4.60137 18.4718 4.71201 18.5534 4.79359C18.635 4.87517 18.7456 4.921 18.861 4.921C19.102 4.921 19.3 4.725 19.3 4.486ZM13.717 10.73C13.8176 10.7292 13.9144 10.7683 13.9862 10.8388C14.058 10.9093 14.0989 11.0054 14.1 11.106V11.856C14.0995 11.9059 14.0891 11.9552 14.0695 12.0011C14.05 12.047 14.0215 12.0886 13.9859 12.1235C13.9502 12.1584 13.908 12.186 13.8617 12.2046C13.8154 12.2232 13.7659 12.2325 13.716 12.232H13.043C12.9504 12.6394 12.7847 13.0266 12.554 13.375L13.027 13.839C13.177 13.986 13.177 14.225 13.027 14.372L12.487 14.902C12.4144 14.9725 12.3172 15.0119 12.216 15.0119C12.1148 15.0119 12.0176 14.9725 11.945 14.902L11.468 14.432C11.116 14.654 10.722 14.816 10.301 14.904V15.559C10.3005 15.6089 10.2901 15.6582 10.2705 15.7041C10.251 15.75 10.2225 15.7916 10.1869 15.8265C10.1512 15.8614 10.109 15.889 10.0627 15.9076C10.0164 15.9262 9.9669 15.9355 9.917 15.935H9.154C9.1041 15.9354 9.05461 15.9259 9.00835 15.9072C8.9621 15.8885 8.91998 15.8608 8.88442 15.8258C8.84885 15.7908 8.82053 15.7491 8.80107 15.7032C8.78161 15.6572 8.77139 15.6079 8.771 15.558V14.898C8.35777 14.8077 7.96372 14.6452 7.607 14.418L7.134 14.881C7.06153 14.9517 6.96427 14.9913 6.863 14.9913C6.76173 14.9913 6.66447 14.9517 6.592 14.881L6.052 14.351C6.01647 14.3162 5.98826 14.2748 5.96904 14.2289C5.94981 14.1831 5.93995 14.1339 5.94004 14.0843C5.94013 14.0346 5.95018 13.9854 5.96958 13.9397C5.98898 13.894 6.01734 13.8526 6.053 13.818L6.53 13.35C6.30208 13.0001 6.13946 12.6118 6.05 12.204H5.383C5.33301 12.2044 5.28344 12.1949 5.23712 12.1761C5.1908 12.1573 5.14864 12.1296 5.11307 12.0945C5.07749 12.0593 5.04919 12.0175 5.02978 11.9715C5.01038 11.9254 5.00026 11.876 5 11.826V11.077C5.00052 11.0271 5.01087 10.9778 5.03045 10.9319C5.05003 10.886 5.07846 10.8444 5.11412 10.8094C5.14978 10.7745 5.19197 10.747 5.23827 10.7284C5.28458 10.7098 5.3341 10.7005 5.384 10.701H6.057C6.151 10.289 6.319 9.90298 6.547 9.55798L6.074 9.09399C6.03841 9.05932 6.01012 9.01789 5.99081 8.97211C5.97149 8.92634 5.96154 8.87717 5.96154 8.82749C5.96154 8.77781 5.97149 8.72863 5.99081 8.68286C6.01012 8.63709 6.03841 8.59565 6.074 8.56099L6.614 8.03199C6.68647 7.96126 6.78373 7.92166 6.885 7.92166C6.98627 7.92166 7.08353 7.96126 7.156 8.03199L7.633 8.50099C7.985 8.28099 8.378 8.11899 8.798 8.03099V7.37599C8.79852 7.32609 8.80887 7.27678 8.82845 7.23087C8.84803 7.18497 8.87646 7.14337 8.91212 7.10846C8.94778 7.07354 8.98997 7.04599 9.03627 7.02738C9.08258 7.00877 9.1321 6.99946 9.182 6.99999H9.945C9.9949 6.9996 10.0444 7.00903 10.0906 7.02776C10.1369 7.0465 10.179 7.07416 10.2146 7.10917C10.2501 7.14417 10.2785 7.18584 10.2979 7.2318C10.3174 7.27775 10.3276 7.32709 10.328 7.37699V8.03699C10.748 8.12999 11.141 8.29399 11.492 8.51699L11.965 8.05299C12.0375 7.98226 12.1347 7.94266 12.236 7.94266C12.3373 7.94266 12.4345 7.98226 12.507 8.05299L13.047 8.58299C13.197 8.72999 13.197 8.96799 13.047 9.11599L12.569 9.58398C12.794 9.92998 12.959 10.317 13.049 10.731H13.717V10.73ZM9.55 13.66C10.781 13.66 11.783 12.676 11.783 11.467C11.783 10.258 10.781 9.27498 9.55 9.27498C8.319 9.27498 7.317 10.259 7.317 11.468C7.317 12.678 8.319 13.661 9.55 13.661V13.66ZM9.55 10.268C10.227 10.268 10.775 10.806 10.775 11.471C10.775 12.135 10.227 12.674 9.55 12.674C9.39057 12.6754 9.23242 12.6455 9.08458 12.5858C8.93673 12.5261 8.80209 12.4379 8.68834 12.3262C8.57458 12.2145 8.48395 12.0815 8.42161 11.9347C8.35926 11.788 8.32644 11.6304 8.325 11.471C8.325 10.806 8.874 10.268 9.55 10.268ZM18.764 14.797C18.894 14.797 19 14.9 19 15.028V15.489C18.9997 15.5197 18.9934 15.5501 18.9814 15.5784C18.9694 15.6067 18.952 15.6323 18.9301 15.6539C18.9081 15.6754 18.8822 15.6924 18.8537 15.7039C18.8252 15.7154 18.7947 15.7212 18.764 15.721H18.35C18.292 15.975 18.189 16.212 18.049 16.424L18.339 16.71C18.3607 16.7313 18.378 16.7567 18.3898 16.7848C18.4016 16.8129 18.4077 16.843 18.4077 16.8735C18.4077 16.9039 18.4016 16.9341 18.3898 16.9621C18.378 16.9902 18.3607 17.0156 18.339 17.037L18.008 17.363C17.9632 17.4063 17.9033 17.4306 17.841 17.4306C17.7787 17.4306 17.7188 17.4063 17.674 17.363L17.381 17.075C17.164 17.21 16.921 17.31 16.661 17.365V17.767C16.6607 17.7977 16.6544 17.8281 16.6424 17.8564C16.6304 17.8847 16.613 17.9103 16.5911 17.9318C16.5691 17.9534 16.5432 17.9704 16.5147 17.9819C16.4862 17.9934 16.4557 17.9992 16.425 17.999H15.956C15.9253 17.9992 15.8948 17.9934 15.8663 17.9819C15.8378 17.9704 15.8119 17.9534 15.7899 17.9318C15.768 17.9103 15.7506 17.8847 15.7386 17.8564C15.7266 17.8281 15.7203 17.7977 15.72 17.767V17.36C15.4658 17.3045 15.2235 17.2046 15.004 17.065L14.714 17.35C14.6692 17.3936 14.6091 17.4181 14.5465 17.4181C14.4839 17.4181 14.4238 17.3936 14.379 17.35L14.048 17.024C14.0263 17.0026 14.009 16.9772 13.9972 16.9491C13.9854 16.9211 13.9793 16.8909 13.9793 16.8605C13.9793 16.83 13.9854 16.7999 13.9972 16.7718C14.009 16.7437 14.0263 16.7183 14.048 16.697L14.341 16.409C14.2008 16.1934 14.1009 15.9542 14.046 15.703H13.636C13.6053 15.7032 13.5748 15.6974 13.5463 15.6859C13.5178 15.6744 13.4919 15.6574 13.4699 15.6358C13.448 15.6143 13.4306 15.5887 13.4186 15.5604C13.4066 15.5321 13.4003 15.5017 13.4 15.471V15.011C13.4 14.883 13.506 14.779 13.636 14.779H14.051C14.108 14.525 14.211 14.288 14.351 14.076L14.061 13.79C14.0393 13.7687 14.022 13.7432 14.0102 13.7151C13.9984 13.6871 13.9923 13.6569 13.9923 13.6265C13.9923 13.596 13.9984 13.5659 14.0102 13.5378C14.022 13.5097 14.0393 13.4843 14.061 13.463L14.393 13.137C14.4378 13.0936 14.4977 13.0693 14.56 13.0693C14.6223 13.0693 14.6822 13.0936 14.727 13.137L15.02 13.426C15.237 13.29 15.479 13.191 15.737 13.136V12.734C15.737 12.606 15.843 12.502 15.974 12.502H16.443C16.573 12.502 16.679 12.606 16.679 12.734V13.14C16.938 13.196 17.179 13.298 17.395 13.435L17.686 13.15C17.7306 13.1064 17.7906 13.082 17.853 13.082C17.9154 13.082 17.9754 13.1064 18.02 13.15L18.352 13.476C18.3737 13.4973 18.391 13.5227 18.4028 13.5508C18.4146 13.5789 18.4207 13.609 18.4207 13.6395C18.4207 13.6699 18.4146 13.7001 18.4028 13.7281C18.391 13.7562 18.3737 13.7817 18.352 13.803L18.058 14.091C18.196 14.304 18.298 14.541 18.354 14.797H18.764ZM17.221 15.25C17.221 14.698 16.763 14.249 16.201 14.249C15.637 14.249 15.179 14.698 15.179 15.25C15.179 15.803 15.637 16.252 16.2 16.252C16.763 16.252 17.22 15.802 17.22 15.25H17.221Z" fill="#3B6834"/>
</svg>
