<svg width="24" height="24" viewBox="0 0 24 24" fill="none" xmlns="http://www.w3.org/2000/svg">
<path d="M4.24001 6.43087L11.24 2.21188C11.4693 2.07327 11.7321 2 12 2C12.2679 2 12.5307 2.07327 12.76 2.21188L19.76 6.43187C20.219 6.70686 20.5 7.21186 20.5 7.75586V16.2438C20.5 16.7888 20.219 17.2928 19.76 17.5688L12.76 21.7878C12.5307 21.9264 12.2679 21.9997 12 21.9997C11.7321 21.9997 11.4693 21.9264 11.24 21.7878L4.24001 17.5678C4.01323 17.4294 3.82598 17.2348 3.69635 17.0029C3.56673 16.771 3.4991 16.5095 3.50001 16.2438V7.75586C3.50001 7.21086 3.78101 6.70686 4.24001 6.43087ZM11.485 18.3708C13.779 18.3708 15.79 17.0808 16.859 15.1768L14.832 13.9518C14.172 15.1448 12.915 15.9518 11.485 15.9518C9.36401 15.9518 7.63501 14.1768 7.63501 11.9999C7.63501 9.82286 9.36401 8.04786 11.485 8.04786C12.915 8.04786 14.172 8.85486 14.832 10.0649L16.874 8.85486C15.806 6.93486 13.794 5.62887 11.484 5.62887C8.05901 5.62887 5.27801 8.48386 5.27801 11.9999C5.27801 15.5158 8.05901 18.3708 11.485 18.3708ZM19.498 11.6769V10.8709H19.153L19.341 9.90286H18.587L18.398 10.8709H17.801L17.99 9.90286H17.22L17.031 10.8709H16.2V11.6769H16.891L16.75 12.3229H16.2V13.1288H16.592L16.404 14.0968H17.158L17.347 13.1288H17.944L17.755 14.0968H18.525L18.714 13.1288H19.499V12.3229H18.855L18.997 11.6769H19.499H19.498ZM17.503 12.3229L17.644 11.6769H18.241L18.1 12.3229H17.503Z" fill="#3B6834"/>
</svg>
