<svg width="46" height="46" viewBox="0 0 46 46" fill="none" xmlns="http://www.w3.org/2000/svg">
<path d="M45.406 9.71775C45.2724 7.34142 44.2682 5.09754 42.5852 3.41456C40.9022 1.73158 38.6583 0.727401 36.282 0.593753C27.4344 0.093749 18.5656 0.093749 9.71801 0.593753C7.34174 0.727616 5.09799 1.73187 3.41506 3.4148C1.73212 5.09774 0.727871 7.34149 0.594008 9.71775C0.0939896 18.5657 0.0939896 27.4348 0.594008 36.2828C0.727871 38.659 1.73212 40.9028 3.41506 42.5857C5.09799 44.2686 7.34174 45.2729 9.71801 45.4067C18.5656 45.9082 27.4344 45.9082 36.282 45.4067C38.6583 45.2731 40.9022 44.2689 42.5852 42.5859C44.2682 40.903 45.2724 38.6591 45.406 36.2828C45.906 27.4348 45.906 18.5657 45.406 9.71775Z" fill="#F6FFED"/>
<path d="M28.75 13.25V9.25H17.25V13.25H8.25V24.75H14.75V20.5H19.25V24.75H26.75V20.5H31.25V24.75H37.75V13.25H28.75ZM18.75 10.75H27.25V13.25H18.75V10.75ZM31.25 29.5H26.75V26.25H19.25V29.5H14.75V26.25H10.25V36.75H35.75V26.25H31.25V29.5Z" fill="#3B6834"/>
<path d="M28.25 22H29.75V28H28.25V22Z" fill="#3B6834"/>
<path d="M16.25 22H17.75V28H16.25V22Z" fill="#3B6834"/>
</svg>
