<svg width="12" height="12" viewBox="0 0 12 12" fill="none" xmlns="http://www.w3.org/2000/svg">
<g clip-path="url(#clip0_181773_5587)">
<path d="M5.99982 0.181641C2.78684 0.181641 0.181641 2.78684 0.181641 5.99982C0.181641 9.21281 2.78684 11.818 5.99982 11.818C9.21281 11.818 11.818 9.21281 11.818 5.99982C11.818 2.78684 9.21281 0.181641 5.99982 0.181641ZM5.99982 10.831C3.33229 10.831 1.16865 8.66735 1.16865 5.99982C1.16865 3.33229 3.33229 1.16865 5.99982 1.16865C8.66735 1.16865 10.831 3.33229 10.831 5.99982C10.831 8.66735 8.66735 10.831 5.99982 10.831Z" fill="#8C8C8C"/>
<path d="M8.26875 7.64276L6.41681 6.3038V3.08951C6.41681 3.03237 6.37005 2.98562 6.31291 2.98562H5.68824C5.63109 2.98562 5.58434 3.03237 5.58434 3.08951V6.66614C5.58434 6.6999 5.59992 6.73107 5.6272 6.75055L7.77525 8.31679C7.822 8.35055 7.88694 8.34016 7.9207 8.29471L8.29213 7.78822C8.3259 7.74016 8.31551 7.67523 8.26875 7.64276Z" fill="#8C8C8C"/>
</g>
<defs>
<clipPath id="clip0_181773_5587">
<rect width="11.6364" height="11.6364" fill="white" transform="translate(0.181641 0.181641)"/>
</clipPath>
</defs>
</svg>
