<svg width="46" height="46" viewBox="0 0 46 46" fill="none" xmlns="http://www.w3.org/2000/svg">
<path d="M45.406 9.71775C45.2724 7.34142 44.2682 5.09754 42.5852 3.41456C40.9022 1.73158 38.6584 0.727401 36.282 0.593753C27.4344 0.093749 18.5656 0.093749 9.71801 0.593753C7.34175 0.727616 5.098 1.73187 3.41506 3.4148C1.73212 5.09774 0.727874 7.34149 0.594011 9.71775C0.0939885 18.5657 0.0939885 27.4348 0.594011 36.2828C0.727874 38.659 1.73212 40.9028 3.41506 42.5857C5.098 44.2686 7.34175 45.2729 9.71801 45.4067C18.5656 45.908 27.4344 45.908 36.282 45.4067C38.6584 45.2731 40.9022 44.2689 42.5852 42.5859C44.2682 40.903 45.2724 38.6591 45.406 36.2828C45.906 27.4348 45.906 18.5657 45.406 9.71775Z" fill="#F6FFED"/>
<path d="M23 36.75C25.7195 36.75 28.3779 35.9436 30.6391 34.4327C32.9003 32.9218 34.6626 30.7744 35.7033 28.2619C36.744 25.7494 37.0163 22.9848 36.4858 20.3175C35.9553 17.6503 34.6457 15.2003 32.7227 13.2773C30.7997 11.3543 28.3497 10.0448 25.6825 9.51421C23.0153 8.98366 20.2506 9.25596 17.7381 10.2967C15.2256 11.3374 13.0782 13.0997 11.5673 15.3609C10.0564 17.6221 9.25 20.2805 9.25 23C9.25423 26.6454 10.7043 30.1403 13.282 32.718C15.8597 35.2958 19.3546 36.7458 23 36.75ZM23.5 23.75H22.5C21.6603 23.7523 20.8525 23.4287 20.2466 22.8473C19.6407 22.2659 19.2841 21.4722 19.2517 20.6331C19.2193 19.794 19.5137 18.9751 20.0729 18.3488C20.6322 17.7224 21.4126 17.3375 22.25 17.275V16C22.25 15.8011 22.329 15.6103 22.4697 15.4697C22.6103 15.329 22.8011 15.25 23 15.25C23.1989 15.25 23.3897 15.329 23.5303 15.4697C23.671 15.6103 23.75 15.8011 23.75 16V17.25H26C26.1989 17.25 26.3897 17.329 26.5303 17.4697C26.671 17.6103 26.75 17.8011 26.75 18C26.75 18.1989 26.671 18.3897 26.5303 18.5303C26.3897 18.671 26.1989 18.75 26 18.75H22.5C22.0359 18.75 21.5908 18.9344 21.2626 19.2626C20.9344 19.5908 20.75 20.0359 20.75 20.5C20.75 20.9641 20.9344 21.4093 21.2626 21.7374C21.5908 22.0656 22.0359 22.25 22.5 22.25H23.5C24.3597 22.2573 25.1821 22.6021 25.79 23.21C26.3979 23.8179 26.7427 24.6403 26.75 25.5C26.7475 26.3164 26.4373 27.1019 25.8812 27.6997C25.3252 28.2975 24.5641 28.6636 23.75 28.725V30C23.75 30.1989 23.671 30.3897 23.5303 30.5303C23.3897 30.671 23.1989 30.75 23 30.75C22.8011 30.75 22.6103 30.671 22.4697 30.5303C22.329 30.3897 22.25 30.1989 22.25 30V28.75H20C19.8011 28.75 19.6103 28.671 19.4697 28.5303C19.329 28.3897 19.25 28.1989 19.25 28C19.25 27.8011 19.329 27.6103 19.4697 27.4697C19.6103 27.329 19.8011 27.25 20 27.25H23.5C23.9641 27.25 24.4092 27.0656 24.7374 26.7374C25.0656 26.4093 25.25 25.9641 25.25 25.5C25.25 25.0359 25.0656 24.5908 24.7374 24.2626C24.4092 23.9344 23.9641 23.75 23.5 23.75Z" fill="#3B6834"/>
</svg>
