<svg width="24" height="24" viewBox="0 0 24 24" fill="none" xmlns="http://www.w3.org/2000/svg">
<path fill-rule="evenodd" clip-rule="evenodd" d="M21.6825 4.98196V19.2509C21.6825 20.1429 20.9907 20.8664 20.1437 20.8664H3.77686C2.92722 20.8664 2.23804 20.1429 2.23804 19.2509V4.98196C2.23804 4.08998 2.92722 3.36646 3.77686 3.36646H20.1437C20.9907 3.36646 21.6825 4.08998 21.6825 4.98196ZM20.7103 18.69V6.28311H3.21026V18.69C3.21026 18.836 3.33287 18.9534 3.48544 18.9534H20.4378C20.5877 18.9534 20.7103 18.836 20.7103 18.69ZM17.7079 4.81195C17.7079 4.57723 17.5159 4.38944 17.2818 4.38944C17.045 4.38944 16.8556 4.57723 16.8556 4.81195C16.8556 5.04408 17.045 5.23447 17.2818 5.23447C17.5159 5.23447 17.7079 5.04408 17.7079 4.81195ZM19.5544 4.81195C19.5544 5.04408 19.7465 5.23447 19.9806 5.23447C20.2174 5.23447 20.4067 5.04408 20.4067 4.81195C20.4067 4.57723 20.2174 4.38944 19.9806 4.38944C19.7465 4.38944 19.5544 4.57723 19.5544 4.81195ZM19.0574 4.81195C19.0574 4.57723 18.8653 4.38944 18.6312 4.38944C18.3945 4.38944 18.2051 4.57723 18.2051 4.81195C18.2051 5.04408 18.3945 5.23447 18.6312 5.23447C18.8653 5.23447 19.0574 5.04408 19.0574 4.81195Z" fill="#3B6834"/>
<path fill-rule="evenodd" clip-rule="evenodd" d="M19.252 8.10596V8.81996C19.252 8.82842 19.1499 8.83516 19.025 8.83516H4.89802C4.77087 8.83516 4.6687 8.82842 4.6687 8.81996V8.10596H19.252Z" fill="#3B6834"/>
<path fill-rule="evenodd" clip-rule="evenodd" d="M19.252 9.56421V10.2782C19.252 10.2867 19.1499 10.2934 19.025 10.2934H4.89802C4.77087 10.2934 4.6687 10.2867 4.6687 10.2782V9.56421H19.252Z" fill="#3B6834"/>
<path fill-rule="evenodd" clip-rule="evenodd" d="M19.252 11.0225V11.7365C19.252 11.7449 19.1499 11.7517 19.025 11.7517H4.89802C4.77087 11.7517 4.6687 11.7449 4.6687 11.7365V11.0225H19.252Z" fill="black"/>
<path fill-rule="evenodd" clip-rule="evenodd" d="M8.31455 13.2102V16.7802C8.31455 16.8223 8.28901 16.856 8.25775 16.856H4.72603C4.69424 16.856 4.6687 16.8223 4.6687 16.7802V13.2102H8.31455Z" fill="black"/>
<path fill-rule="evenodd" clip-rule="evenodd" d="M13.7832 13.2102V16.7802C13.7832 16.8223 13.755 16.856 13.7207 16.856H9.83577C9.80084 16.856 9.77271 16.8223 9.77271 16.7802V13.2102H13.7832Z" fill="black"/>
<path fill-rule="evenodd" clip-rule="evenodd" d="M19.252 13.2102V16.7802C19.252 16.8223 19.2265 16.856 19.1953 16.856H15.6635C15.6317 16.856 15.6062 16.8223 15.6062 16.7802V13.2102H19.252Z" fill="black"/>
</svg>
