<svg width="24" height="24" viewBox="0 0 24 24" fill="none" xmlns="http://www.w3.org/2000/svg">
<path d="M23.6697 7.18525L12.3728 0.10712C12.2611 0.0371226 12.1319 0 12 0C11.8681 0 11.7389 0.0371226 11.6272 0.10712L0.330281 7.18525C0.229223 7.24845 0.145891 7.33631 0.0881162 7.44057C0.0303413 7.54483 1.9579e-05 7.66206 0 7.78126C1.9579e-05 7.90046 0.0303413 8.01769 0.0881162 8.12195C0.145891 8.22621 0.229223 8.31407 0.330281 8.37728L11.6272 15.4085C11.7389 15.4785 11.8681 15.5156 12 15.5156C12.1319 15.5156 12.2611 15.4785 12.3728 15.4085L23.6697 8.37728C23.7708 8.31407 23.8541 8.22621 23.9119 8.12195C23.9697 8.01769 24 7.90046 24 7.78126C24 7.66206 23.9697 7.54483 23.9119 7.44057C23.8541 7.33631 23.7708 7.24845 23.6697 7.18525Z" fill="#3B6834"/>
<path d="M23.6697 15.6227L22.575 14.9385L12.3728 21.2855C12.2611 21.3554 12.1319 21.3925 12 21.3925C11.8681 21.3925 11.7389 21.3554 11.6272 21.2855L1.42505 14.9385L0.330281 15.6227C0.229223 15.6859 0.145891 15.7738 0.0881162 15.878C0.0303413 15.9823 1.9579e-05 16.0995 0 16.2187C1.9579e-05 16.3379 0.0303413 16.4552 0.0881162 16.5594C0.145891 16.6637 0.229223 16.7515 0.330281 16.8147L11.6272 23.8929C11.7389 23.9628 11.8681 23.9999 12 23.9999C12.1319 23.9999 12.2611 23.9628 12.3728 23.8929L23.6697 16.8147C23.7708 16.7515 23.8541 16.6637 23.9119 16.5594C23.9697 16.4552 24 16.3379 24 16.2187C24 16.0995 23.9697 15.9823 23.9119 15.878C23.8541 15.7738 23.7708 15.6859 23.6697 15.6227Z" fill="#3B6834"/>
<path d="M23.6697 11.404L22.575 10.7197L12.3728 17.0667C12.2611 17.1367 12.1319 17.1738 12 17.1738C11.8681 17.1738 11.7389 17.1367 11.6272 17.0667L1.42505 10.7197L0.330281 11.404C0.229223 11.4672 0.145891 11.555 0.0881162 11.6593C0.0303413 11.7635 1.9579e-05 11.8808 0 12C1.9579e-05 12.1192 0.0303413 12.2364 0.0881162 12.3407C0.145891 12.4449 0.229223 12.5328 0.330281 12.596L11.6272 19.6272C11.7389 19.6972 11.8681 19.7343 12 19.7343C12.1319 19.7343 12.2611 19.6972 12.3728 19.6272L23.6697 12.596C23.7708 12.5328 23.8541 12.4449 23.9119 12.3407C23.9697 12.2364 24 12.1192 24 12C24 11.8808 23.9697 11.7635 23.9119 11.6593C23.8541 11.555 23.7708 11.4672 23.6697 11.404Z" fill="#3B6834"/>
</svg>
