<svg width="24" height="24" viewBox="0 0 24 24" fill="none" xmlns="http://www.w3.org/2000/svg">
<path d="M4.24001 6.43087L11.24 2.21188C11.4693 2.07327 11.7321 2 12 2C12.2679 2 12.5307 2.07327 12.76 2.21188L19.76 6.43187C20.219 6.70686 20.5 7.21186 20.5 7.75586V16.2438C20.5 16.7888 20.219 17.2928 19.76 17.5688L12.76 21.7878C12.5307 21.9264 12.2679 21.9997 12 21.9997C11.7321 21.9997 11.4693 21.9264 11.24 21.7878L4.24001 17.5678C4.01323 17.4294 3.82598 17.2348 3.69635 17.0029C3.56673 16.771 3.4991 16.5095 3.50001 16.2438V7.75586C3.50001 7.21086 3.78101 6.70686 4.24001 6.43087ZM16.826 12.5009L14.248 15.0768C14.2276 15.0961 14.2112 15.1194 14.2001 15.1452C14.1889 15.1709 14.1831 15.1987 14.183 15.2268C14.183 15.2828 14.205 15.3338 14.248 15.3768L14.578 15.7058C14.5972 15.7265 14.6204 15.743 14.6462 15.7543C14.672 15.7657 14.6998 15.7716 14.728 15.7718C14.7562 15.7716 14.784 15.7657 14.8098 15.7543C14.8356 15.743 14.8588 15.7265 14.878 15.7058L17.934 12.6509C17.9546 12.6317 17.9711 12.6085 17.9825 12.5827C17.9938 12.5569 17.9998 12.529 18 12.5009C17.9998 12.4727 17.9938 12.4448 17.9825 12.419C17.9711 12.3932 17.9546 12.37 17.934 12.3509L14.878 9.29586C14.8588 9.27523 14.8356 9.25873 14.8098 9.24738C14.784 9.23603 14.7562 9.23007 14.728 9.22986C14.6998 9.23007 14.672 9.23603 14.6462 9.24738C14.6204 9.25873 14.5972 9.27523 14.578 9.29586L14.248 9.62086C14.2272 9.64032 14.2106 9.66385 14.1992 9.69C14.1879 9.71615 14.182 9.74435 14.182 9.77286C14.182 9.80136 14.1879 9.82957 14.1992 9.85572C14.2106 9.88186 14.2272 9.9054 14.248 9.92486L16.826 12.5009ZM10.372 16.6168C10.3639 16.6433 10.3614 16.6712 10.3645 16.6987C10.3676 16.7262 10.3763 16.7528 10.39 16.7768C10.419 16.8268 10.46 16.8608 10.519 16.8798L10.923 16.9898C10.9486 16.9988 10.9758 17.002 11.0028 16.9992C11.0297 16.9964 11.0558 16.9878 11.079 16.9738C11.1278 16.9454 11.1636 16.8992 11.179 16.8448L13.625 8.38486C13.6335 8.35815 13.6365 8.32998 13.6339 8.30207C13.6312 8.27416 13.6228 8.24709 13.6094 8.2225C13.5959 8.1979 13.5776 8.1763 13.5555 8.159C13.5335 8.1417 13.5081 8.12907 13.481 8.12186L13.074 8.00886C13.0487 8.00036 13.0218 7.99765 12.9953 8.00094C12.9689 8.00423 12.9435 8.01343 12.921 8.02786C12.8967 8.04074 12.8752 8.05847 12.858 8.07998C12.8408 8.10148 12.8282 8.12629 12.821 8.15286L10.372 16.6168ZM9.11901 15.7058C9.13855 15.7265 9.16211 15.743 9.18824 15.7543C9.21438 15.7656 9.24254 15.7714 9.27101 15.7714C9.29947 15.7714 9.32764 15.7656 9.35378 15.7543C9.37991 15.743 9.40347 15.7265 9.42301 15.7058L9.74801 15.3768C9.76864 15.3577 9.78514 15.3344 9.79649 15.3087C9.80783 15.2829 9.8138 15.255 9.81401 15.2268C9.8138 15.1987 9.80783 15.1708 9.79649 15.145C9.78514 15.1192 9.76864 15.096 9.74801 15.0768L7.17401 12.4999L9.74801 9.92386C9.76897 9.90448 9.7857 9.88097 9.79714 9.85481C9.80859 9.82865 9.81449 9.80041 9.81449 9.77186C9.81449 9.74331 9.80859 9.71506 9.79714 9.68891C9.7857 9.66275 9.76897 9.63924 9.74801 9.61986L9.42301 9.29486C9.40363 9.27389 9.38012 9.25716 9.35396 9.24572C9.3278 9.23428 9.29956 9.22838 9.27101 9.22838C9.24246 9.22838 9.21422 9.23428 9.18806 9.24572C9.1619 9.25716 9.13839 9.27389 9.11901 9.29486L6.06601 12.3499C6.04538 12.369 6.02888 12.3922 6.01753 12.418C6.00618 12.4438 6.00022 12.4717 6.00001 12.4999C6.00001 12.5559 6.02201 12.6059 6.06601 12.6498L9.11901 15.7048V15.7058Z" fill="#3B6834"/>
</svg>
