<svg width="18" height="18" viewBox="0 0 18 18" fill="none" xmlns="http://www.w3.org/2000/svg">
<g clip-path="url(#clip0_181857_1736)">
<path d="M8.99998 0.272705C4.1805 0.272705 0.272705 4.1805 0.272705 8.99998C0.272705 13.8195 4.1805 17.7273 8.99998 17.7273C13.8195 17.7273 17.7273 13.8195 17.7273 8.99998C17.7273 4.1805 13.8195 0.272705 8.99998 0.272705ZM8.99998 16.2467C4.99868 16.2467 1.75322 13.0013 1.75322 8.99998C1.75322 4.99868 4.99868 1.75322 8.99998 1.75322C13.0013 1.75322 16.2467 4.99868 16.2467 8.99998C16.2467 13.0013 13.0013 16.2467 8.99998 16.2467Z" fill="#1E90FF"/>
<path d="M12.4034 11.4644L9.62545 9.45594V4.63452C9.62545 4.5488 9.55532 4.47867 9.46961 4.47867H8.5326C8.44688 4.47867 8.37675 4.5488 8.37675 4.63452V9.99945C8.37675 10.0501 8.40013 10.0969 8.44104 10.1261L11.6631 12.4754C11.7332 12.5261 11.8306 12.5105 11.8813 12.4423L12.4384 11.6826C12.4891 11.6105 12.4735 11.5131 12.4034 11.4644Z" fill="#1E90FF"/>
</g>
<defs>
<clipPath id="clip0_181857_1736">
<rect width="17.4545" height="17.4545" fill="white" transform="translate(0.272705 0.272705)"/>
</clipPath>
</defs>
</svg>
