<svg width="13" height="12" viewBox="0 0 13 12" fill="none" xmlns="http://www.w3.org/2000/svg">
<path d="M9.25039 2.06621V1.03094C9.25039 0.941211 9.14726 0.891658 9.07762 0.946568L3.04012 5.66219C2.98882 5.70209 2.94731 5.75317 2.91876 5.81154C2.89021 5.86992 2.87537 5.93404 2.87537 5.99902C2.87537 6.06401 2.89021 6.12813 2.91876 6.18651C2.94731 6.24488 2.98882 6.29596 3.04012 6.33585L9.07762 11.0515C9.1486 11.1064 9.25039 11.0568 9.25039 10.9671V9.93184C9.25039 9.86621 9.21958 9.80327 9.16869 9.76309L4.34726 5.99969L9.16869 2.23496C9.21958 2.19478 9.25039 2.13184 9.25039 2.06621Z" fill="#D9D9D9"/>
</svg>
