<svg width="25" height="24" viewBox="0 0 25 24" fill="none" xmlns="http://www.w3.org/2000/svg">
<g clip-path="url(#clip0_57_1273)">
<path d="M14.6164 16.6987L8.66693 23.9229C8.63457 23.962 8.58934 23.9882 8.53937 23.9969C8.48939 24.0056 8.43796 23.9962 8.39431 23.9704C8.35057 23.9447 8.31743 23.9042 8.30085 23.8562C8.28427 23.8083 8.28533 23.756 8.30384 23.7087L11.0745 16.3961H8.23259C8.19586 16.3961 8.15975 16.3866 8.12776 16.3685C8.09577 16.3505 8.06897 16.3245 8.04996 16.293C8.0309 16.2616 8.02028 16.2258 8.01915 16.189C8.01802 16.1522 8.0264 16.1158 8.04349 16.0832L11.0892 10.2764H6.57251C6.5359 10.2764 6.4999 10.267 6.46798 10.2491C6.43605 10.2312 6.40927 10.2053 6.39019 10.1741C6.37111 10.1428 6.36038 10.1072 6.35903 10.0706C6.35768 10.034 6.36576 9.99772 6.38248 9.96516L11.4433 0.116016C11.4612 0.0810753 11.4884 0.0517585 11.522 0.03129C11.5555 0.0108215 11.594 -5.46794e-06 11.6333 4.64244e-08H17.8701C17.9077 -2.47367e-05 17.9447 0.00987356 17.9772 0.0286947C18.0097 0.0475159 18.0367 0.074593 18.0555 0.10719C18.0742 0.139787 18.084 0.176749 18.0838 0.21434C18.0837 0.251932 18.0736 0.288822 18.0547 0.321281L15.0577 5.46005H18.4272C18.4654 5.46006 18.503 5.47037 18.536 5.4899C18.5689 5.50942 18.596 5.53744 18.6144 5.57102C18.6328 5.60461 18.6419 5.64252 18.6406 5.6808C18.6393 5.71907 18.6278 5.75631 18.6072 5.78859L14.2888 12.5513H17.5795C17.6201 12.5513 17.6598 12.5629 17.6941 12.5846C17.7284 12.6064 17.7557 12.6375 17.7729 12.6742C17.7902 12.711 17.7966 12.7519 17.7914 12.7921C17.7862 12.8324 17.7697 12.8703 17.7437 12.9015L15.4605 15.6739" fill="#52C41A"/>
<path d="M8.04356 16.0832C8.02648 16.1158 8.01809 16.1522 8.0192 16.1889C8.02032 16.2257 8.03089 16.2615 8.04991 16.293C8.06892 16.3244 8.09573 16.3504 8.12774 16.3685C8.15976 16.3866 8.19589 16.3961 8.23265 16.3961H11.0746L8.3039 23.7087C8.28539 23.756 8.28433 23.8083 8.30091 23.8562C8.31749 23.9042 8.35063 23.9447 8.39437 23.9704C8.40037 23.9739 8.4066 23.9767 8.41288 23.9797L14.6327 14.5531H11.4245C11.3878 14.5531 11.3517 14.5436 11.3197 14.5256C11.2877 14.5075 11.2609 14.4815 11.2419 14.4501C11.2228 14.4187 11.2122 14.3828 11.2111 14.3461C11.2099 14.3093 11.2183 14.2729 11.2354 14.2403L14.2811 8.43342H10.5493C10.5127 8.43342 10.4767 8.424 10.4448 8.40609C10.4128 8.38817 10.3861 8.36235 10.367 8.3311C10.3479 8.29985 10.3372 8.26423 10.3358 8.22764C10.3345 8.19106 10.3426 8.15474 10.3593 8.12217L14.5326 8.04805e-09H11.6333C11.594 -1.07749e-05 11.5555 0.010814 11.522 0.0312831C11.4885 0.0517521 11.4612 0.0810719 11.4433 0.116016L6.38249 9.96502C6.36577 9.99758 6.35769 10.0339 6.35903 10.0705C6.36037 10.1071 6.37108 10.1427 6.39013 10.1739C6.40923 10.2052 6.43603 10.231 6.46797 10.2489C6.4999 10.2668 6.53591 10.2763 6.57253 10.2763H11.0892L8.04356 16.0832Z" fill="#3B6834"/>
</g>
<defs>
<clipPath id="clip0_57_1273">
<rect width="24" height="24" fill="white" transform="translate(0.5)"/>
</clipPath>
</defs>
</svg>
