<svg width="13" height="12" viewBox="0 0 13 12" fill="none" xmlns="http://www.w3.org/2000/svg">
<path d="M9.80854 5.66281L3.77104 0.947189C3.75526 0.934768 3.7363 0.92705 3.71633 0.924919C3.69637 0.922788 3.67621 0.926332 3.65817 0.935143C3.64012 0.943955 3.62493 0.957676 3.61434 0.974732C3.60374 0.991787 3.59817 1.01149 3.59827 1.03156V2.06683C3.59827 2.13246 3.62907 2.1954 3.67996 2.23558L8.50139 6.00031L3.67996 9.76505C3.62773 9.80522 3.59827 9.86817 3.59827 9.9338V10.9691C3.59827 11.0588 3.70139 11.1083 3.77104 11.0534L9.80854 6.33781C9.85985 6.29779 9.90136 6.24658 9.92991 6.1881C9.95847 6.12962 9.97331 6.06539 9.97331 6.00031C9.97331 5.93523 9.95847 5.87101 9.92991 5.81253C9.90136 5.75404 9.85985 5.70284 9.80854 5.66281Z" fill="black" fill-opacity="0.85"/>
</svg>
