<svg width="49" height="48" viewBox="0 0 49 48" fill="none" xmlns="http://www.w3.org/2000/svg">
<path d="M48.2714 10.0072C48.1306 7.50367 47.0727 5.13973 45.2997 3.36669C43.5266 1.59366 41.1627 0.535746 38.6592 0.394947C29.3382 -0.131812 19.9948 -0.131812 10.6738 0.394947C8.17039 0.535973 5.80657 1.59396 4.03359 3.36695C2.2606 5.13993 1.20261 7.50375 1.06159 10.0072C0.534809 19.3285 0.534809 28.6722 1.06159 37.9936C1.20261 40.497 2.2606 42.8608 4.03359 44.6338C5.80657 46.4068 8.17039 47.4648 10.6738 47.6058C19.9948 48.1338 29.3382 48.1338 38.6592 47.6058C41.1627 47.465 43.5266 46.4071 45.2997 44.6341C47.0727 42.8611 48.1306 40.4971 48.2714 37.9936C48.7982 28.6722 48.7982 19.3285 48.2714 10.0072Z" fill="url(#paint0_linear_181773_4592)"/>
<path d="M21.9068 26.0232C22.061 26.1771 22.2686 26.2634 22.4849 26.2634C22.7012 26.2634 22.9089 26.1771 23.0631 26.0232L30.6319 18.3413L34.0606 19.0367C34.1926 19.0628 34.3289 19.0558 34.4577 19.0162C34.5864 18.9767 34.7036 18.9058 34.7992 18.8097L39.4268 14.1128C39.5316 14.0066 39.606 13.8735 39.6421 13.7277C39.6782 13.5818 39.6746 13.4288 39.6317 13.2849C39.5888 13.141 39.5082 13.0117 39.3985 12.9106C39.2889 12.8095 39.1542 12.7406 39.009 12.7111L35.6861 12.0368L35.0217 8.66532C34.9925 8.5181 34.9246 8.38165 34.8251 8.27052C34.7256 8.15938 34.5982 8.07771 34.4566 8.03421C34.3149 7.99169 34.1646 7.98847 34.0213 8.02488C33.878 8.06129 33.7469 8.13601 33.6417 8.24126L29.013 12.9381C28.9176 13.0348 28.8473 13.154 28.8083 13.285C28.7693 13.4159 28.7628 13.5546 28.7893 13.6888L29.4744 17.1677L21.9068 24.8496C21.7535 25.0053 21.6675 25.2163 21.6675 25.4364C21.6675 25.6565 21.7535 25.8675 21.9068 26.0232Z" fill="url(#paint1_linear_181773_4592)"/>
<path d="M24.7572 19.0461C24.9549 19.0438 25.1525 19.059 25.3477 19.0913L27.5759 16.8298C26.6901 16.4242 25.729 16.216 24.7572 16.2192C23.38 16.2192 22.0337 16.6336 20.8886 17.4102C19.7435 18.1868 18.851 19.2905 18.324 20.5819C17.797 21.8733 17.6591 23.2943 17.9277 24.6653C18.1964 26.0362 18.8596 27.2955 19.8334 28.2839C20.8073 29.2722 22.048 29.9453 23.3987 30.218C24.7495 30.4907 26.1495 30.3508 27.4219 29.8159C28.6943 29.2809 29.7818 28.3751 30.5469 27.2129C31.312 26.0507 31.7204 24.6843 31.7204 23.2865C31.7235 22.3002 31.5184 21.3247 31.1188 20.4256L28.8906 22.6872C28.9224 22.8853 28.9373 23.0858 28.9351 23.2865C28.9351 24.1252 28.6901 24.945 28.231 25.6423C27.7719 26.3397 27.1194 26.8832 26.356 27.2041C25.5926 27.5251 24.7526 27.609 23.9421 27.4454C23.1317 27.2818 22.3872 26.8779 21.8029 26.2849C21.2186 25.6919 20.8207 24.9363 20.6595 24.1138C20.4983 23.2912 20.5811 22.4386 20.8973 21.6638C21.2135 20.8889 21.749 20.2267 22.436 19.7607C23.1231 19.2948 23.9309 19.0461 24.7572 19.0461Z" fill="url(#paint2_linear_181773_4592)"/>
<path d="M29.5147 10.9159C28.0013 10.3044 26.3863 9.9935 24.7574 9.99998C22.1683 9.99998 19.6373 10.7792 17.4845 12.2392C15.3317 13.6991 13.6538 15.7742 12.663 18.202C11.6722 20.6298 11.4129 23.3013 11.918 25.8787C12.4232 28.456 13.6699 30.8235 15.5007 32.6816C17.3315 34.5398 19.6641 35.8052 22.2035 36.3179C24.7429 36.8305 27.375 36.5674 29.7671 35.5618C32.1591 34.5562 34.2036 32.8532 35.6421 30.6682C37.0805 28.4832 37.8483 25.9144 37.8483 23.2866C37.8547 21.6333 37.5483 19.9942 36.9459 18.4582C36.7148 18.4854 36.4808 18.4701 36.2551 18.4129L33.6258 17.8815L32.3668 19.1592C33.0426 20.4266 33.395 21.8455 33.3918 23.2866C33.3918 25.0198 32.8854 26.7142 31.9367 28.1553C30.9879 29.5965 29.6394 30.7197 28.0617 31.383C26.4839 32.0463 24.7478 32.2198 23.0729 31.8817C21.398 31.5435 19.8595 30.7089 18.6519 29.4833C17.4444 28.2577 16.6221 26.6962 16.2889 24.9962C15.9557 23.2963 16.1267 21.5342 16.7802 19.9329C17.4338 18.3316 18.5405 16.9629 19.9604 16C21.3803 15.037 23.0497 14.5231 24.7574 14.5231C26.1772 14.5199 27.5753 14.8775 28.8239 15.5634L30.0829 14.2856L29.5593 11.617C29.5171 11.3859 29.5021 11.1506 29.5147 10.9159Z" fill="url(#paint3_linear_181773_4592)"/>
<defs>
<linearGradient id="paint0_linear_181773_4592" x1="24.6665" y1="-0.000118935" x2="24.6665" y2="48.002" gradientUnits="userSpaceOnUse">
<stop stop-color="#E8F5FF"/>
<stop offset="1" stop-color="#B4DFFF"/>
</linearGradient>
<linearGradient id="paint1_linear_181773_4592" x1="30.6668" y1="7.36766" x2="30.6668" y2="38.113" gradientUnits="userSpaceOnUse">
<stop stop-color="#466AFF"/>
<stop offset="1" stop-color="#06B8FF"/>
</linearGradient>
<linearGradient id="paint2_linear_181773_4592" x1="24.757" y1="15.7299" x2="24.757" y2="39.5246" gradientUnits="userSpaceOnUse">
<stop stop-color="#466AFF"/>
<stop offset="1" stop-color="#06B8FF"/>
</linearGradient>
<linearGradient id="paint3_linear_181773_4592" x1="24.757" y1="9.08018" x2="24.757" y2="53.8142" gradientUnits="userSpaceOnUse">
<stop stop-color="#466AFF"/>
<stop offset="1" stop-color="#06B8FF"/>
</linearGradient>
</defs>
</svg>
