<svg width="24" height="24" viewBox="0 0 24 24" fill="none" xmlns="http://www.w3.org/2000/svg">
<path d="M19.665 16.807C19.3876 17.4521 19.0452 18.0673 18.643 18.643C18.106 19.409 17.667 19.939 17.328 20.233C16.803 20.717 16.24 20.964 15.638 20.978C15.204 20.978 14.683 20.855 14.075 20.605C13.466 20.357 12.906 20.234 12.394 20.234C11.857 20.234 11.281 20.357 10.665 20.605C10.048 20.855 9.551 20.985 9.171 20.998C8.593 21.023 8.017 20.768 7.442 20.234C7.075 19.914 6.616 19.364 6.066 18.587C5.476 17.757 4.991 16.794 4.611 15.697C4.204 14.51 4 13.361 4 12.25C4 10.976 4.275 9.87798 4.826 8.95798C5.24249 8.23552 5.83837 7.63275 6.556 7.20799C7.26343 6.78466 8.07063 6.55689 8.895 6.54799C9.354 6.54799 9.956 6.68899 10.704 6.96799C11.45 7.24799 11.929 7.38999 12.139 7.38999C12.296 7.38999 12.828 7.22399 13.73 6.89299C14.583 6.58599 15.303 6.45899 15.893 6.50899C17.491 6.63899 18.691 7.26899 19.49 8.40399C18.06 9.26998 17.354 10.484 17.368 12.04C17.381 13.252 17.82 14.26 18.684 15.062C19.076 15.434 19.514 15.721 20 15.925C19.894 16.231 19.783 16.525 19.665 16.805V16.807ZM15.999 2.38C15.999 3.33 15.652 4.21799 14.961 5.03899C14.126 6.01499 13.116 6.57899 12.021 6.48999C12.0064 6.37055 11.999 6.25033 11.999 6.12999C11.999 5.21799 12.396 4.24199 13.101 3.443C13.453 3.039 13.901 2.703 14.443 2.435C14.985 2.171 15.498 2.025 15.979 2C15.994 2.127 15.999 2.254 15.999 2.38Z" fill="#3B6834"/>
</svg>
