<svg width="24" height="24" viewBox="0 0 24 24" fill="none" xmlns="http://www.w3.org/2000/svg">
<path d="M3 3H21V21H3V3ZM19.527 16.707C19.395 15.886 18.86 15.196 17.273 14.553C16.723 14.3 16.108 14.118 15.925 13.701C15.86 13.458 15.852 13.321 15.893 13.174C16.011 12.696 16.581 12.548 17.033 12.684C17.323 12.782 17.598 13.006 17.764 13.364C18.541 12.861 18.54 12.864 19.082 12.518C18.883 12.211 18.777 12.068 18.647 11.937C18.18 11.415 17.544 11.147 16.526 11.167L15.996 11.235C15.487 11.364 15.003 11.631 14.719 11.988C13.867 12.955 14.11 14.648 15.147 15.343C16.168 16.11 17.669 16.284 17.861 17.001C18.047 17.879 17.215 18.163 16.389 18.062C15.779 17.936 15.441 17.626 15.075 17.063L13.708 17.852C13.872 18.212 14.045 18.374 14.32 18.685C15.624 20.008 18.887 19.943 19.472 17.941C19.496 17.872 19.654 17.414 19.527 16.707ZM12.785 11.273H11.102L11.095 15.626C11.095 16.551 11.143 17.4 10.992 17.66C10.746 18.172 10.108 18.108 9.817 18.009C9.521 17.863 9.37 17.657 9.196 17.364C9.148 17.28 9.112 17.215 9.1 17.21L7.73 18.048C7.959 18.516 8.294 18.921 8.723 19.184C9.365 19.569 10.227 19.688 11.129 19.48C11.716 19.31 12.222 18.955 12.488 18.416C12.871 17.71 12.788 16.854 12.785 15.908C12.794 14.365 12.785 12.821 12.785 11.273Z" fill="#3B6834"/>
</svg>
