<svg width="24" height="24" viewBox="0 0 24 24" fill="none" xmlns="http://www.w3.org/2000/svg">
<path d="M9.38588 17.416C6.32288 18.267 11.2489 20.026 15.1489 18.363C14.5089 18.116 14.0519 17.831 14.0519 17.831C12.3119 18.158 11.5059 18.184 9.92788 18.005C8.62488 17.856 9.38588 17.416 9.38588 17.416ZM14.6819 15.756C12.3769 16.196 11.0459 16.183 9.35888 16.01C8.05488 15.875 8.90888 15.247 8.90888 15.247C5.53588 16.36 10.7869 17.624 15.5009 16.253C14.9999 16.077 14.6809 15.756 14.6809 15.756H14.6819ZM16.4879 6.14001C12.1439 8.646 12.9469 9.373 13.9929 10.836C15.1129 12.405 12.6729 13.657 12.6729 13.657C12.6729 13.657 13.8869 12.667 12.9259 11.567C9.66888 7.834 16.4879 6.14001 16.4879 6.14001ZM18.0829 19.02C18.0829 19.02 18.6469 19.482 17.4629 19.84C15.2129 20.517 8.09488 20.722 6.11788 19.867C5.40788 19.559 6.73988 19.132 7.15888 19.042C7.59688 18.948 7.84588 18.965 7.84588 18.965C7.05588 18.412 2.73788 20.053 5.65288 20.523C13.6029 21.805 20.1449 19.946 18.0829 19.02ZM15.3509 14.206C11.6739 15.168 4.57288 14.72 6.61688 13.736C8.34588 12.905 9.75188 13 9.75188 13C9.75188 13 6.13188 13.856 8.46988 14.167C9.45688 14.298 11.4249 14.267 13.2589 14.115C14.7569 13.99 16.2609 13.722 16.2609 13.722C16.2609 13.722 15.7329 13.946 15.3509 14.206ZM16.2459 16.61C16.2289 16.656 16.1709 16.707 16.1709 16.707C21.1609 15.403 19.3269 12.107 16.9409 12.942C16.8118 12.9893 16.7002 13.0748 16.6209 13.187C16.6209 13.187 16.7539 13.133 17.0489 13.072C18.2549 12.822 19.9839 14.678 16.2459 16.61ZM12.0289 12.963C10.1399 11.27 8.75588 9.778 9.68488 8.39C11.0489 6.35201 14.8279 5.36401 13.9929 2.09302C13.9929 2.09302 16.0629 4.15301 12.0299 7.31901C8.79588 9.859 11.2929 11.308 12.0289 12.963ZM16.3809 21.177C13.3189 21.751 9.54288 21.684 7.30288 21.316C7.30288 21.316 7.76188 21.694 10.1189 21.845C13.7059 22.073 19.2149 21.718 19.3449 20.03C19.3449 20.03 19.0949 20.67 16.3809 21.177Z" fill="#3B6834"/>
</svg>
