<svg width="13" height="12" viewBox="0 0 13 12" fill="none" xmlns="http://www.w3.org/2000/svg">
<path d="M9.33961 2.06621V1.03094C9.33961 0.941211 9.23649 0.891658 9.16684 0.946568L3.12934 5.66219C3.07805 5.70209 3.03654 5.75317 3.00799 5.81154C2.97943 5.86992 2.96459 5.93404 2.96459 5.99902C2.96459 6.06401 2.97943 6.12813 3.00799 6.18651C3.03654 6.24488 3.07805 6.29596 3.12934 6.33585L9.16684 11.0515C9.23783 11.1064 9.33961 11.0568 9.33961 10.9671V9.93184C9.33961 9.86621 9.30881 9.80327 9.25792 9.76309L4.43649 5.99969L9.25792 2.23496C9.30881 2.19478 9.33961 2.13184 9.33961 2.06621Z" fill="#D9D9D9"/>
</svg>
