<svg width="28" height="28" viewBox="0 0 28 28" fill="none" xmlns="http://www.w3.org/2000/svg">
<path d="M13.1595 19.4942C13.1595 20.7841 12.1592 21.8625 10.837 22.1028L10.8539 22.8075C10.8611 23.1127 10.6223 23.3661 10.3204 23.3735L10.307 23.3736C10.1643 23.3736 10.0272 23.3171 9.92512 23.2164C9.82302 23.1156 9.76395 22.9784 9.76051 22.8342L9.74323 22.1111C8.94239 21.9801 8.43574 21.5582 7.95212 21.0971C7.7324 20.8876 7.72234 20.5378 7.92954 20.3157C8.13673 20.0937 8.48283 20.0835 8.70255 20.2929C9.26054 20.8249 9.60297 21.0473 10.2795 21.0473C11.2644 21.0473 12.0658 20.3506 12.0658 19.4942C12.0658 18.6377 11.2645 17.9409 10.2795 17.9409C8.69139 17.9409 7.39944 16.7483 7.39944 15.2822C7.39944 13.9917 8.40058 12.913 9.72354 12.6732L9.70506 11.8912C9.69784 11.586 9.93675 11.3327 10.2387 11.3254C10.5413 11.3175 10.7912 11.5596 10.7984 11.8648L10.8174 12.6696C11.3714 12.7658 11.8827 13.0101 12.2935 13.3808C12.5187 13.5842 12.5383 13.9335 12.3371 14.1613C12.136 14.389 11.7903 14.4088 11.565 14.2054C11.2246 13.8982 10.768 13.729 10.2793 13.729C9.29439 13.729 8.493 14.4258 8.493 15.2822C8.493 16.1386 9.29433 16.8355 10.2793 16.8355C11.8675 16.8355 13.1595 18.0282 13.1595 19.4942ZM28 17.4013V25.2729C28 26.8264 25.8021 27.998 22.8875 27.998C20.149 27.998 18.0434 26.9638 17.7988 25.5503C16.1264 27.1985 13.7173 27.9833 10.3498 27.9978L10.2586 27.9979C4.51739 27.998 1.33645 25.644 0.250815 20.5957C-0.279944 18.1276 0.0325731 15.5912 1.17973 13.057C2.10213 11.0192 3.56426 9.02807 5.42634 7.26675C5.40775 7.2416 5.3896 7.21606 5.37232 7.18964C5.14073 6.83556 5.05942 6.41151 5.1433 5.99558C5.22724 5.57965 5.46637 5.2217 5.81667 4.98757C5.84513 4.9687 5.87419 4.95077 5.90379 4.93379L4.78835 2.45585C4.54145 1.90743 4.67335 1.26826 5.11656 0.865318C5.86157 0.187839 6.58142 0.620515 7.01157 0.879081C7.08364 0.922415 7.15063 0.963648 7.23774 0.955634C7.35985 0.944358 7.42804 0.846857 7.49333 0.753999C7.6985 0.461937 7.97957 0.0619822 8.60969 0.00571443C9.25682 -0.0516588 9.63966 0.336688 9.91898 0.620459C10.0028 0.705635 10.0829 0.800483 10.2044 0.827014C10.3888 0.867253 10.5203 0.742004 10.6399 0.620459C10.9193 0.336688 11.3018 -0.0517694 11.9493 0.00571443C12.5793 0.0619822 12.8604 0.461937 13.0656 0.753999C13.1156 0.825135 13.1605 0.90108 13.2434 0.936067C13.3543 0.982883 13.4509 0.936896 13.5475 0.879081C13.9776 0.62057 14.6975 0.187894 15.4425 0.865373C15.8856 1.26826 16.0175 1.90743 15.7706 2.45579L14.6551 4.93384C14.912 5.08135 15.1222 5.2994 15.2616 5.56274C17.1529 5.56196 17.9458 4.73154 18.8548 3.77831C19.1749 3.44258 19.5061 3.09541 19.8927 2.7813C20.128 2.59005 20.4723 2.62797 20.6615 2.86581C20.8507 3.1037 20.8133 3.45165 20.5779 3.64289C20.2453 3.91312 19.9524 4.22027 19.6422 4.54555C19.039 5.17804 18.3876 5.86121 17.389 6.27692C17.4981 6.28571 17.6081 6.29383 17.7189 6.30201C19.2115 6.4125 20.9033 6.5377 21.695 8.41686C21.8134 8.69771 21.684 9.02238 21.4061 9.14199C21.3385 9.1712 21.2657 9.18628 21.1921 9.18632C21.0848 9.18633 20.9799 9.15446 20.8904 9.09467C20.8009 9.03488 20.7308 8.94981 20.6887 8.85004C20.184 7.65183 19.201 7.52017 17.639 7.4046C16.8453 7.34584 16.0318 7.28532 15.3018 6.98148C15.2685 7.05369 15.23 7.1233 15.1865 7.18975C15.1692 7.21623 15.151 7.24187 15.1323 7.26708C17.6136 9.61479 19.3581 12.3522 20.1162 15.0855C20.9049 14.8246 21.8507 14.6762 22.8874 14.6762C25.802 14.6762 28 15.8477 28 17.4013ZM22.8874 15.7817C20.3974 15.7817 18.8685 16.725 18.8685 17.4013C18.8685 18.0776 20.3974 19.0209 22.8874 19.0209C25.3774 19.0209 26.9063 18.0776 26.9063 17.4013C26.9063 16.725 25.3774 15.7817 22.8874 15.7817ZM13.9698 6.78742C14.2253 6.73425 14.3963 6.47579 14.344 6.21662C14.292 5.95899 14.0353 5.78676 13.7801 5.83921C11.5881 6.29538 8.9706 6.29543 6.77845 5.83916C6.74699 5.83265 6.71497 5.82937 6.68286 5.82937C6.46107 5.82937 6.25896 5.99867 6.21493 6.21662C6.16277 6.47507 6.33289 6.73458 6.58815 6.78725C8.9344 7.27553 11.6245 7.27553 13.9698 6.78742ZM5.78381 1.99797L7.02803 4.76194C9.0675 5.18158 11.4926 5.18152 13.5309 4.76194L14.7751 1.99797C14.8449 1.84298 14.7261 1.57989 14.5318 1.61653C14.3496 1.65097 14.1922 1.77826 14.0358 1.87145C13.7453 2.04585 13.4007 2.10417 13.0697 2.03494C12.7388 1.96572 12.4454 1.77396 12.2472 1.49731C12.1467 1.35808 12.0445 1.12394 11.853 1.10686C11.6193 1.08602 11.4309 1.38897 11.283 1.53235C11.0135 1.79486 10.6538 1.94153 10.2795 1.94154C9.90522 1.94155 9.54553 1.7949 9.27601 1.53241C9.16424 1.42402 9.06007 1.30573 8.94086 1.20552C8.82613 1.10913 8.68428 1.06994 8.55818 1.1686C8.44914 1.25394 8.39123 1.38709 8.31172 1.49731C8.11351 1.77399 7.82013 1.96577 7.48919 2.035C7.15824 2.10423 6.81365 2.04589 6.52308 1.87145C6.38221 1.78705 6.23828 1.68761 6.08282 1.63273C5.87251 1.5585 5.69889 1.80927 5.78381 1.99797ZM17.7748 23.8868V17.4013C17.7748 16.6638 18.2704 16.0125 19.1027 15.5316C18.4022 12.8667 16.6682 10.1718 14.1709 7.87392C12.9341 8.12989 11.607 8.25817 10.2797 8.25817C8.9524 8.25817 7.62517 8.12994 6.38768 7.87386C2.26935 11.6577 0.423561 16.1946 1.31955 20.3609C2.29029 24.8751 5.04892 26.8923 10.2574 26.8925C10.2868 26.8925 10.3155 26.8924 10.3451 26.8923C13.9608 26.8767 16.3271 25.9202 17.7748 23.8868ZM26.9063 25.2729V24.3684C25.9853 24.9867 24.5536 25.3696 22.8875 25.3696C21.2213 25.3696 19.7896 24.9866 18.8686 24.3684V25.2729C18.8686 25.9491 20.3974 26.8925 22.8875 26.8925C25.3774 26.8925 26.9063 25.9492 26.9063 25.2729ZM26.9063 22.6446V21.7469C25.9853 22.3651 24.5536 22.748 22.8875 22.748C21.2213 22.748 19.7896 22.365 18.8686 21.7468V22.6445C18.8686 23.3208 20.3974 24.2641 22.8875 24.2641C25.3774 24.2641 26.9063 23.3209 26.9063 22.6446ZM26.9063 20.0229V19.1252C25.9853 19.7434 24.5536 20.1263 22.8875 20.1263C21.2213 20.1263 19.7896 19.7433 18.8686 19.1252V20.0229C18.8686 20.6992 20.3974 21.6426 22.8875 21.6426C25.3774 21.6426 26.9063 20.6992 26.9063 20.0229Z" fill="#FA8C16"/>
</svg>
