<svg width="24" height="24" viewBox="0 0 24 24" fill="none" xmlns="http://www.w3.org/2000/svg">
<path d="M19.4819 6.41288C19.923 6.68088 20.1459 7.18088 20.1459 7.71588V15.9729C20.1459 16.5089 19.923 17.0079 19.4819 17.2779L12.722 21.4078C12.5064 21.5388 12.2591 21.608 12.007 21.608C11.7548 21.608 11.5075 21.5388 11.292 21.4078L9.01695 19.9948C8.67695 19.7948 8.84195 19.7248 8.95395 19.6838C9.40795 19.5188 9.49695 19.4798 9.98095 19.1929C10.031 19.1628 10.094 19.1738 10.147 19.2058L11.887 20.2958C11.95 20.3328 12.026 20.3328 12.084 20.2958L18.867 16.1659C18.931 16.1289 18.9169 16.0519 18.9169 15.9729V7.71588C18.9169 7.63588 18.9269 7.56088 18.8619 7.51988L12.1049 3.39389C12.0718 3.37532 12.0344 3.36557 11.9965 3.36557C11.9585 3.36557 11.9211 3.37532 11.8879 3.39389L5.06695 7.51988C5.00095 7.55988 4.92995 7.63788 4.92995 7.71488V15.9719C4.92995 16.0519 4.96895 16.1259 5.03395 16.1629L6.89695 17.2949C7.90895 17.8269 8.46495 17.2009 8.46495 16.5719V8.42088C8.46495 8.30588 8.68195 8.13488 8.79095 8.13488H9.65495C9.76295 8.13488 9.69495 8.30588 9.69495 8.42188V16.5729C9.69495 17.9929 9.02895 18.8059 7.74795 18.8059C7.35495 18.8059 7.11495 18.8059 6.24995 18.3579L4.44695 17.2779C4.22244 17.141 4.03621 16.9496 3.9056 16.7214C3.77498 16.4933 3.70424 16.2357 3.69995 15.9729V7.71588C3.69995 7.18088 3.99995 6.67988 4.43995 6.41288L11.28 2.27989C11.71 2.02389 12.2699 2.02389 12.698 2.27989L19.4829 6.41388L19.4819 6.41288ZM14.11 14.6649C15.544 14.6649 16.155 14.3249 16.155 13.5239C16.155 13.0639 15.9819 12.7209 13.753 12.4919C11.889 12.2979 10.737 11.8649 10.737 10.2999C10.737 8.85587 11.8949 7.99488 13.837 7.99488C16.0189 7.99488 17.097 8.78987 17.235 10.4959C17.2372 10.5243 17.2337 10.553 17.2248 10.5801C17.2158 10.6072 17.2016 10.6323 17.183 10.6539C17.1646 10.6739 17.1424 10.6899 17.1176 10.7009C17.0928 10.7119 17.0661 10.7177 17.0389 10.7179H16.1539C16.1087 10.7171 16.0652 10.7007 16.0306 10.6716C15.996 10.6425 15.9724 10.6023 15.9639 10.5579C15.7509 9.56787 15.236 9.25187 13.836 9.25187C12.27 9.25187 12.088 9.82387 12.088 10.2539C12.088 10.7739 12.303 10.9219 14.418 11.2159C16.511 11.5069 17.5049 11.9129 17.5049 13.4579C17.5049 15.0169 16.2679 15.8979 14.11 15.8979C11.129 15.8979 10.505 14.4369 10.505 13.2309C10.505 13.1169 10.593 12.9789 10.702 12.9789H11.582C11.681 12.9789 11.762 13.0989 11.778 13.2009C11.911 14.1429 12.308 14.6649 14.11 14.6649Z" fill="#3B6834"/>
</svg>
