<svg width="48" height="48" viewBox="0 0 48 48" fill="none" xmlns="http://www.w3.org/2000/svg">
<path d="M47.6049 10.0073C47.4641 7.50379 46.4062 5.13985 44.6332 3.36681C42.8601 1.59378 40.4962 0.535868 37.9927 0.395069C28.6717 -0.13169 19.3283 -0.13169 10.0073 0.395069C7.50388 0.536095 5.14007 1.59408 3.36708 3.36707C1.59409 5.14006 0.53611 7.50387 0.395084 10.0073C-0.131694 19.3287 -0.131694 28.6724 0.395084 37.9937C0.53611 40.4972 1.59409 42.861 3.36708 44.634C5.14007 46.4069 7.50388 47.4649 10.0073 47.606C19.3283 48.1341 28.6717 48.1341 37.9927 47.606C40.4962 47.4652 42.8601 46.4072 44.6332 44.6342C46.4062 42.8612 47.4641 40.4972 47.6049 37.9937C48.1317 28.6724 48.1317 19.3287 47.6049 10.0073Z" fill="url(#paint0_linear_57_1053)"/>
<path d="M23.5004 23.1765C26.8375 23.1765 29.5427 20.4507 29.5427 17.0882C29.5427 13.7258 26.8375 11 23.5004 11C20.1633 11 17.458 13.7258 17.458 17.0882C17.458 20.4507 20.1633 23.1765 23.5004 23.1765Z" fill="url(#paint1_linear_57_1053)"/>
<path d="M32.6945 30.8531V38.0001H14.3047V30.8531C14.3041 29.2795 14.7025 27.7318 15.4621 26.3569C16.2216 24.982 17.3171 23.8253 18.6447 22.9966C20.0084 24.1391 21.726 24.7647 23.4996 24.7647C25.2732 24.7647 26.9908 24.1391 28.3545 22.9966C29.6821 23.8253 30.7776 24.982 31.5371 26.3569C32.2967 27.7318 32.695 29.2795 32.6945 30.8531Z" fill="url(#paint2_linear_57_1053)"/>
<path d="M12.9915 24.2354C15.1678 24.2354 16.9321 22.4577 16.9321 20.2648C16.9321 18.0719 15.1678 16.2942 12.9915 16.2942C10.8151 16.2942 9.05078 18.0719 9.05078 20.2648C9.05078 22.4577 10.8151 24.2354 12.9915 24.2354Z" fill="url(#paint3_linear_57_1053)"/>
<path d="M14.0109 25.7178C13.1673 27.2959 12.7267 29.0607 12.7288 30.8531V33.7648H8.00001V27.6766C7.99701 26.4461 8.44621 25.2579 9.26103 24.3413C10.272 25.2958 11.6061 25.8259 12.9915 25.8237C13.3341 25.8262 13.676 25.7907 14.0109 25.7178Z" fill="url(#paint4_linear_57_1053)"/>
<path d="M39.0001 27.6766V33.7648H34.2713V30.8531C34.2734 29.0607 33.8328 27.2959 32.9893 25.7178C33.3241 25.7907 33.666 25.8262 34.0086 25.8237C35.394 25.8259 36.7281 25.2958 37.7391 24.3413C38.5539 25.2579 39.0031 26.4461 39.0001 27.6766Z" fill="url(#paint5_linear_57_1053)"/>
<path d="M34.0081 24.2354C36.1844 24.2354 37.9487 22.4577 37.9487 20.2648C37.9487 18.0719 36.1844 16.2942 34.0081 16.2942C31.8317 16.2942 30.0674 18.0719 30.0674 20.2648C30.0674 22.4577 31.8317 24.2354 34.0081 24.2354Z" fill="url(#paint6_linear_57_1053)"/>
<defs>
<linearGradient id="paint0_linear_57_1053" x1="24" y1="-0.0505653" x2="24" y2="47.2404" gradientUnits="userSpaceOnUse">
<stop stop-color="#FFEDFF"/>
<stop offset="1" stop-color="#FFC3F9"/>
</linearGradient>
<linearGradient id="paint1_linear_57_1053" x1="23.5004" y1="10.5998" x2="23.5004" y2="37.1233" gradientUnits="userSpaceOnUse">
<stop stop-color="#B444FF"/>
<stop offset="1" stop-color="#F582FF"/>
</linearGradient>
<linearGradient id="paint2_linear_57_1053" x1="23.4996" y1="10.5999" x2="23.4996" y2="37.1234" gradientUnits="userSpaceOnUse">
<stop stop-color="#B444FF"/>
<stop offset="1" stop-color="#F582FF"/>
</linearGradient>
<linearGradient id="paint3_linear_57_1053" x1="12.9915" y1="10.5998" x2="12.9915" y2="37.1234" gradientUnits="userSpaceOnUse">
<stop stop-color="#B444FF"/>
<stop offset="1" stop-color="#F582FF"/>
</linearGradient>
<linearGradient id="paint4_linear_57_1053" x1="11.0054" y1="10.5999" x2="11.0054" y2="37.1234" gradientUnits="userSpaceOnUse">
<stop stop-color="#B444FF"/>
<stop offset="1" stop-color="#F582FF"/>
</linearGradient>
<linearGradient id="paint5_linear_57_1053" x1="35.9947" y1="10.5999" x2="35.9947" y2="37.1234" gradientUnits="userSpaceOnUse">
<stop stop-color="#B444FF"/>
<stop offset="1" stop-color="#F582FF"/>
</linearGradient>
<linearGradient id="paint6_linear_57_1053" x1="34.0081" y1="10.5998" x2="34.0081" y2="37.1234" gradientUnits="userSpaceOnUse">
<stop stop-color="#B444FF"/>
<stop offset="1" stop-color="#F582FF"/>
</linearGradient>
</defs>
</svg>
