<svg width="24" height="24" viewBox="0 0 24 24" fill="none" xmlns="http://www.w3.org/2000/svg">
<path d="M12 6.80005C17.523 6.80005 22 9.09304 22 11.922C22 14.751 17.523 17.044 12 17.044C6.477 17.044 2 14.75 2 11.922C2 9.09304 6.477 6.80005 12 6.80005ZM9.398 12.92C9.598 12.734 9.76 12.524 9.884 12.3C10.008 12.075 10.096 11.824 10.149 11.553C10.275 10.896 10.179 10.375 9.863 10.008C9.546 9.64104 9.041 9.44004 8.35 9.44004H6.052L4.985 15.065H6.18L6.464 13.411H7.488C7.939 13.411 8.311 13.431 8.602 13.335C8.894 13.239 9.159 13.145 9.398 12.92ZM7.898 10.268C8.351 10.268 8.654 10.383 8.805 10.552C8.956 10.722 8.992 11.043 8.913 11.455C8.83 11.885 8.671 12.169 8.435 12.352C8.2 12.536 7.841 12.584 7.359 12.584H6.632L7.078 10.268H7.898ZM12.886 13.411H14.091L14.587 10.889C14.687 10.365 14.612 10.044 14.36 9.80904C14.107 9.57504 13.65 9.44004 12.984 9.44004H11.928L12.212 7.95205H11.026L9.96 13.41H11.145L11.755 10.267H12.704C13.007 10.267 13.205 10.335 13.299 10.437C13.392 10.537 13.411 10.745 13.358 11.024L12.886 13.41V13.411ZM19.476 11.561C19.602 10.905 19.506 10.375 19.19 10.008C18.873 9.64104 18.369 9.44004 17.677 9.44004H15.38L14.314 15.065H15.509L15.793 13.411H16.816C17.268 13.411 17.639 13.431 17.931 13.335C18.223 13.239 18.488 13.145 18.727 12.92C18.927 12.734 19.089 12.529 19.213 12.304C19.337 12.08 19.425 11.832 19.477 11.562L19.476 11.561ZM17.225 10.268C17.679 10.268 17.981 10.383 18.133 10.552C18.283 10.722 18.32 11.043 18.241 11.455C18.158 11.885 17.999 12.169 17.763 12.352C17.527 12.536 17.168 12.584 16.687 12.584H15.96L16.406 10.268H17.225Z" fill="#3B6834"/>
</svg>
