<svg width="28" height="28" viewBox="0 0 28 28" fill="none" xmlns="http://www.w3.org/2000/svg">
<path d="M11.5752 9.01773L9.16634 11.8743L11.5922 15.0043C11.812 15.2879 11.8221 15.7615 11.615 16.0623C11.5639 16.1367 11.5022 16.1959 11.4338 16.2363C11.3653 16.2768 11.2915 16.2975 11.217 16.2974C11.0775 16.2976 10.9432 16.2247 10.8419 16.0935L7.97584 12.3955C7.92021 12.3237 7.87619 12.2368 7.84664 12.1402C7.81708 12.0437 7.80264 11.9398 7.80425 11.8352C7.80586 11.7306 7.82348 11.6276 7.85597 11.5328C7.88847 11.4381 7.93512 11.3538 7.99291 11.2852L10.859 7.88645C11.0872 7.61588 11.4326 7.64963 11.6304 7.96196C11.8281 8.27437 11.8034 8.74709 11.5752 9.01773ZM20.3927 11.2691L17.5266 8.09466C17.2919 7.83473 16.9475 7.88427 16.7575 8.20558C16.5675 8.5269 16.6038 8.9982 16.8386 9.25821L19.2323 11.9095L16.7958 15.2441C16.5823 15.5364 16.5823 16.0103 16.7958 16.3027C16.9026 16.4487 17.0426 16.5219 17.1825 16.5219C17.3225 16.5219 17.4625 16.4487 17.5692 16.3027L20.4353 12.3802C20.4895 12.306 20.5317 12.217 20.5592 12.1191C20.5866 12.0211 20.5987 11.9164 20.5947 11.8116C20.5907 11.7069 20.5706 11.6044 20.5358 11.511C20.501 11.4175 20.4523 11.3351 20.3927 11.2691ZM15.045 6.90567C14.7499 6.81541 14.4581 7.07041 14.3925 7.47397L12.9393 16.4268C12.8738 16.8304 13.0597 17.2301 13.3545 17.3198C13.3945 17.332 13.4344 17.3378 13.4736 17.3378C13.7243 17.3378 13.9503 17.1003 14.007 16.7515L15.4603 7.79865C15.5258 7.39509 15.3398 6.99526 15.045 6.90567ZM28 23.4779C28 25.9709 26.5181 27.999 24.6965 27.999H3.30345C1.48192 27.9991 0 25.9709 0 23.4779C0 23.0646 0.244836 22.7295 0.546875 22.7295H2.08753V1.74472C2.08753 0.78213 2.65973 -0.000976562 3.36306 -0.000976562H25.0365C25.7399 -0.000976562 26.3121 0.78213 26.3121 1.74472V22.7295H27.4531C27.7552 22.7295 28 23.0646 28 23.4779ZM3.18128 22.7295H25.2183V1.74472C25.2183 1.60984 25.1351 1.49593 25.0365 1.49593H3.36306C3.26452 1.49593 3.18128 1.60984 3.18128 1.74472V22.7295ZM26.8378 24.2264H1.16222C1.40618 25.5332 2.27369 26.5021 3.30345 26.5021H24.6965C25.7263 26.5022 26.5938 25.5332 26.8378 24.2264Z" fill="#1E90FF"/>
</svg>
