<svg width="24" height="24" viewBox="0 0 24 24" fill="none" xmlns="http://www.w3.org/2000/svg">
<path d="M9.79893 11.6729C8.22193 11.6729 6.88093 13.0329 6.88093 14.6069V16.7399H5.29693C3.94693 16.7399 3.15693 15.7559 2.82693 14.3439C2.38093 12.4459 2.39993 11.3339 2.82693 9.51692C3.19693 7.93192 4.37993 7.09693 5.72993 7.09693H12.1339V6.44293H7.51693V4.67493C7.51693 3.29793 7.85093 2.55094 9.81793 2.19494C10.5435 2.06599 11.279 2.00074 12.0159 1.99994C12.8109 1.99594 13.6359 2.05794 14.4339 2.19494C15.6939 2.41094 16.7509 3.38193 16.7509 4.67493V9.21792C16.7509 10.5509 15.7329 11.6729 14.4409 11.6729H9.79893ZM21.4149 9.51692C21.8789 11.4349 21.8999 12.8489 21.4149 14.3439C20.9449 15.7959 20.4409 16.7399 19.0909 16.7399H12.1369V17.3929H16.7529V19.2119C16.7529 20.5879 15.6169 21.2879 14.4469 21.6359C12.6869 22.1609 11.2939 22.0799 9.82193 21.6359C8.59392 21.2659 7.51993 20.5049 7.51993 19.2119V14.6679C7.51993 13.3609 8.52993 12.1629 9.80093 12.1629H14.4429C15.9899 12.1629 17.3899 10.8609 17.3899 9.21792V7.09693H19.0899C20.4429 7.09693 21.0799 8.13692 21.4149 9.51692ZM9.00593 5.28093C9.48593 5.28093 9.87793 4.87593 9.87793 4.37493C9.87793 3.87193 9.48593 3.46293 9.00593 3.46293C8.52393 3.46293 8.13393 3.87193 8.13393 4.37493C8.13393 4.87493 8.52393 5.28093 9.00593 5.28093ZM14.2329 18.6059C13.7529 18.6059 13.3609 19.0109 13.3609 19.5119C13.3609 20.0149 13.7529 20.4239 14.2329 20.4239C14.7149 20.4239 15.1049 20.0139 15.1049 19.5119C15.1049 19.0109 14.7149 18.6059 14.2329 18.6059Z" fill="#3B6834"/>
</svg>
