<svg width="24" height="24" viewBox="0 0 24 24" fill="none" xmlns="http://www.w3.org/2000/svg">
<path d="M18.917 8.97279C20.914 9.74579 22 10.8098 22 11.9998C22 13.1898 20.914 14.2538 18.917 15.0268C18.5564 15.1693 18.1886 15.2928 17.815 15.3968C17.911 15.7838 17.99 16.1698 18.055 16.5398C18.39 18.6498 18.022 20.1468 17 20.7418C16.6891 20.9189 16.3358 21.0081 15.978 20.9998C14.859 20.9998 13.438 20.1628 12 18.7618C10.578 20.1618 9.157 20.9998 8.022 20.9998C7.639 20.9998 7.304 20.9198 7 20.7418C5.978 20.1618 5.61 18.6648 5.946 16.5398C6.01 16.1698 6.089 15.7838 6.186 15.3968C5.802 15.2838 5.435 15.1558 5.083 15.0268C3.103 14.2538 2 13.1898 2 11.9998C2 10.8098 3.086 9.74579 5.083 8.97279C5.44361 8.83026 5.81145 8.70675 6.185 8.60279C6.09134 8.22479 6.01129 7.84354 5.945 7.45979C5.61 5.3498 5.979 3.8528 7 3.2578C7.31095 3.08066 7.66423 2.99148 8.022 2.9998C9.141 2.9998 10.562 3.8368 12 5.2378C13.438 3.8378 14.86 2.9998 15.978 2.9998C16.361 2.9998 16.696 3.0798 17 3.2578C18.022 3.8378 18.39 5.3348 18.054 7.45979C17.99 7.82979 17.911 8.21579 17.814 8.60279C18.198 8.71579 18.565 8.84379 18.917 8.97279ZM17.16 7.33079C17.431 5.6408 17.208 4.4488 16.553 4.0628C16.3831 3.96411 16.1894 3.91396 15.993 3.9178C15.019 3.9178 13.821 4.7228 12.639 5.89779C13.2324 6.56297 13.787 7.26179 14.3 7.99079C15.227 8.07079 16.105 8.20079 16.936 8.39379C17.032 8.02379 17.112 7.66879 17.16 7.33079ZM14.764 13.6098C15.067 13.0628 15.339 12.5308 15.61 11.9998C15.3469 11.4534 15.0647 10.9164 14.764 10.3898C14.4676 9.86039 14.1476 9.34454 13.805 8.84379C13.2098 8.79748 12.613 8.77613 12.016 8.77979C11.409 8.77979 10.818 8.79579 10.226 8.84379C9.876 9.35979 9.54 9.87379 9.252 10.3898C8.95132 10.9164 8.66915 11.4534 8.406 11.9998C8.661 12.5308 8.949 13.0788 9.252 13.6098C9.54 14.1248 9.859 14.6398 10.211 15.1558C10.786 15.2038 11.377 15.2198 12 15.2198C12.607 15.2198 13.198 15.2038 13.79 15.1558C14.14 14.6398 14.476 14.1258 14.764 13.6098ZM16.089 13.0788C15.914 13.4008 15.738 13.7388 15.546 14.0768C15.371 14.4148 15.163 14.7368 14.971 15.0428C15.5508 14.9698 16.1265 14.8676 16.696 14.7368C16.5193 14.175 16.3168 13.6218 16.089 13.0788ZM12 17.4418C12.383 17.0228 12.75 16.5718 13.102 16.1058C12.735 16.1218 12.367 16.1378 12 16.1378C11.633 16.1378 11.265 16.1218 10.898 16.1058C11.249 16.5718 11.617 17.0228 12 17.4418ZM7.304 14.7198C7.87351 14.8506 8.44923 14.9528 9.029 15.0258C8.837 14.7038 8.645 14.3978 8.454 14.0438C8.262 13.7218 8.086 13.3838 7.911 13.0618C7.671 13.6248 7.479 14.1888 7.304 14.7198ZM7.304 9.26179C7.479 9.80879 7.671 10.3568 7.911 10.9198C8.086 10.5978 8.262 10.2598 8.454 9.92179C8.629 9.58379 8.837 9.26179 9.029 8.95579C8.44923 9.02881 7.87351 9.13094 7.304 9.26179ZM12 6.55779C11.617 6.97679 11.25 7.42779 10.898 7.89379C11.265 7.87779 11.633 7.86179 12 7.86179C12.367 7.86179 12.735 7.87779 13.102 7.89379C12.7562 7.4311 12.3885 6.98526 12 6.55779ZM14.971 8.97279L15.546 9.93879C15.738 10.2608 15.914 10.5988 16.089 10.9368C16.329 10.3738 16.521 9.80979 16.696 9.27879C16.1265 9.14794 15.5508 9.04581 14.971 8.97279ZM6.841 7.33079C6.904 7.66879 6.968 8.02279 7.064 8.39379C7.93349 8.20486 8.81384 8.06993 9.7 7.98979C10.209 7.25779 10.7637 6.55873 11.361 5.89679C10.163 4.7058 8.965 3.9168 8.006 3.9168C7.799 3.9168 7.607 3.9648 7.447 4.0618C6.792 4.4478 6.569 5.6388 6.84 7.32979L6.841 7.33079ZM2.894 11.9998C2.894 12.9018 4.219 13.8678 6.424 14.5118C6.664 13.7068 6.999 12.8688 7.382 12.0158C7.01515 11.1973 6.6953 10.3587 6.424 9.50379C6.072 9.60079 5.721 9.71379 5.402 9.84279C3.804 10.4378 2.894 11.2428 2.894 11.9998ZM7.446 19.9368C7.606 20.0338 7.798 20.0818 8.006 20.0818C8.98 20.0818 10.178 19.2768 11.36 18.1018C10.7669 17.4366 10.2127 16.7377 9.7 16.0088C8.81292 15.9369 7.93204 15.8022 7.064 15.6058C6.968 15.9758 6.888 16.3308 6.84 16.6688C6.569 18.3588 6.791 19.5508 7.446 19.9368ZM16.552 19.9368C17.207 19.5508 17.43 18.3598 17.159 16.6688C17.095 16.3308 17.031 15.9768 16.935 15.6058C16.105 15.7838 15.225 15.9278 14.299 16.0088C13.79 16.7408 13.2353 17.4398 12.638 18.1018C13.836 19.2928 15.034 20.0818 15.993 20.0818C16.2 20.0818 16.392 20.0338 16.552 19.9368ZM17.574 14.4958C17.926 14.3988 18.277 14.2858 18.596 14.1568C20.178 13.5618 21.104 12.7568 21.104 11.9998C21.104 11.0978 19.779 10.1318 17.574 9.48779C17.334 10.2928 16.999 11.1308 16.616 11.9838C16.999 12.8368 17.318 13.6908 17.574 14.4958ZM12.063 13.8518C11.8229 13.8509 11.5853 13.8026 11.3638 13.7099C11.1423 13.6171 10.9412 13.4816 10.7721 13.3111C10.603 13.1406 10.4691 12.9384 10.3782 12.7162C10.2872 12.4939 10.2409 12.2559 10.242 12.0158C10.242 11.0018 11.057 10.1808 12.062 10.1808C13.069 10.1808 13.884 11.0018 13.884 12.0158C13.8851 12.2559 13.8388 12.4939 13.7478 12.7162C13.6569 12.9384 13.523 13.1406 13.3539 13.3111C13.1848 13.4816 12.9837 13.6171 12.7622 13.7099C12.5407 13.8026 12.3031 13.8509 12.063 13.8518Z" fill="#3B6834"/>
</svg>
