<svg width="49" height="48" viewBox="0 0 49 48" fill="none" xmlns="http://www.w3.org/2000/svg">
<path d="M47.9382 10.0072C47.7974 7.50367 46.7395 5.13973 44.9664 3.36669C43.1934 1.59366 40.8295 0.535746 38.326 0.394947C29.0049 -0.131812 19.6616 -0.131812 10.3406 0.394947C7.83714 0.535973 5.47332 1.59396 3.70033 3.36695C1.92735 5.13993 0.869362 7.50375 0.728335 10.0072C0.201557 19.3285 0.201557 28.6722 0.728335 37.9936C0.869362 40.497 1.92735 42.8609 3.70033 44.6338C5.47332 46.4068 7.83714 47.4648 10.3406 47.6058C19.6615 48.1344 29.005 48.1344 38.326 47.6058C40.8295 47.465 43.1934 46.4071 44.9664 44.6341C46.7395 42.8611 47.7974 40.4971 47.9382 37.9936C48.4649 28.6722 48.4649 19.3285 47.9382 10.0072Z" fill="url(#paint0_linear_181773_4635)"/>
<path d="M38.5705 23.2373H34.5027C34.3004 23.2373 34.1064 23.3177 33.9634 23.4607C33.8203 23.6037 33.74 23.7977 33.74 24C33.74 24.2023 33.8203 24.3963 33.9634 24.5393C34.1064 24.6824 34.3004 24.7627 34.5027 24.7627H38.5705C38.7728 24.7627 38.9668 24.6824 39.1098 24.5393C39.2529 24.3963 39.3332 24.2023 39.3332 24C39.3332 23.7977 39.2529 23.6037 39.1098 23.4607C38.9668 23.3177 38.7728 23.2373 38.5705 23.2373Z" fill="url(#paint1_linear_181773_4635)"/>
<path d="M23.5706 34.1695V38.2373C23.5706 38.4396 23.6509 38.6336 23.7939 38.7766C23.937 38.9196 24.131 39 24.3333 39C24.5356 39 24.7296 38.9196 24.8726 38.7766C25.0156 38.6336 25.096 38.4396 25.096 38.2373V34.1695C25.096 33.9672 25.0156 33.7732 24.8726 33.6302C24.7296 33.4871 24.5356 33.4068 24.3333 33.4068C24.131 33.4068 23.937 33.4871 23.7939 33.6302C23.6509 33.7732 23.5706 33.9672 23.5706 34.1695ZM25.096 13.8305V9.76271C25.096 9.56043 25.0156 9.36643 24.8726 9.22339C24.7296 9.08036 24.5356 9 24.3333 9C24.131 9 23.937 9.08036 23.7939 9.22339C23.6509 9.36643 23.5706 9.56043 23.5706 9.76271V13.8305C23.5706 14.0328 23.6509 14.2268 23.7939 14.3698C23.937 14.5129 24.131 14.5932 24.3333 14.5932C24.5356 14.5932 24.7296 14.5129 24.8726 14.3698C25.0156 14.2268 25.096 14.0328 25.096 13.8305Z" fill="url(#paint2_linear_181773_4635)"/>
<path d="M9.33325 24C9.33325 24.2023 9.41361 24.3963 9.55665 24.5393C9.69968 24.6824 9.89368 24.7627 10.096 24.7627H14.1638C14.366 24.7627 14.56 24.6824 14.7031 24.5393C14.8461 24.3963 14.9265 24.2023 14.9265 24C14.9265 23.7977 14.8461 23.6037 14.7031 23.4607C14.56 23.3177 14.366 23.2373 14.1638 23.2373H10.096C9.89368 23.2373 9.69968 23.3177 9.55665 23.4607C9.41361 23.6037 9.33325 23.7977 9.33325 24Z" fill="url(#paint3_linear_181773_4635)"/>
<path d="M24.0586 23.9795C25.3223 23.9795 26.3468 22.955 26.3468 21.6913C26.3468 20.4276 25.3223 19.4032 24.0586 19.4032C22.7949 19.4032 21.7705 20.4276 21.7705 21.6913C21.7705 22.955 22.7949 23.9795 24.0586 23.9795Z" fill="url(#paint4_linear_181773_4635)"/>
<path d="M12.3333 21.4372H13.8892C14.496 21.4372 15.078 21.6782 15.5071 22.1073C15.9362 22.5365 16.1773 23.1185 16.1773 23.7253C16.1773 24.3322 15.9362 24.9141 15.5071 25.3433C15.078 25.7724 14.496 26.0134 13.8892 26.0134H12.3333C12.7912 28.3458 13.9334 30.489 15.6142 32.1698C17.2949 33.8505 19.4381 34.9927 21.7705 35.4507V33.8948C21.7705 33.2879 22.0116 32.7059 22.4407 32.2768C22.8698 31.8477 23.4518 31.6067 24.0587 31.6067C24.6655 31.6067 25.2475 31.8477 25.6766 32.2768C26.1057 32.7059 26.3468 33.2879 26.3468 33.8948V35.4507C28.6792 34.9927 30.8224 33.8505 32.5032 32.1698C34.1839 30.489 35.3261 28.3458 35.7841 26.0134H34.2282C33.6213 26.0134 33.0393 25.7724 32.6102 25.3433C32.1811 24.9141 31.94 24.3322 31.94 23.7253C31.94 23.1185 32.1811 22.5365 32.6102 22.1073C33.0393 21.6782 33.6213 21.4372 34.2282 21.4372H35.7841C35.3261 19.1048 34.1839 16.9616 32.5032 15.2808C30.8224 13.6001 28.6792 12.4579 26.3468 11.9999V13.5558C26.3468 14.1627 26.1057 14.7447 25.6766 15.1738C25.2475 15.6029 24.6655 15.8439 24.0587 15.8439C23.4518 15.8439 22.8698 15.6029 22.4407 15.1738C22.0116 14.7447 21.7705 14.1627 21.7705 13.5558V11.9999C19.4381 12.4579 17.2949 13.6001 15.6142 15.2808C13.9334 16.9616 12.7912 19.1048 12.3333 21.4372ZM24.0587 17.8778C24.8468 17.8747 25.6164 18.1168 26.2608 18.5706C26.9052 19.0244 27.3925 19.6674 27.6551 20.4106C27.9177 21.1537 27.9426 21.9601 27.7264 22.718C27.5102 23.4759 27.0636 24.1478 26.4485 24.6406C27.1875 25.0579 27.8027 25.6636 28.2314 26.396C28.6601 27.1284 28.8871 27.9614 28.8892 28.81C28.8892 29.0123 28.8088 29.2063 28.6658 29.3494C28.5228 29.4924 28.3288 29.5728 28.1265 29.5728C27.9242 29.5728 27.7302 29.4924 27.5872 29.3494C27.4441 29.2063 27.3638 29.0123 27.3638 28.81C27.3638 27.9335 27.0155 27.0928 26.3957 26.473C25.7759 25.8532 24.9352 25.505 24.0587 25.505C23.1821 25.505 22.3415 25.8532 21.7216 26.473C21.1018 27.0928 20.7536 27.9335 20.7536 28.81C20.7536 29.0123 20.6732 29.2063 20.5302 29.3494C20.3872 29.4924 20.1932 29.5728 19.9909 29.5728C19.7886 29.5728 19.5946 29.4924 19.4516 29.3494C19.3085 29.2063 19.2282 29.0123 19.2282 28.81C19.2303 27.9614 19.4572 27.1284 19.886 26.396C20.3147 25.6636 20.9299 25.0579 21.6688 24.6406C21.0537 24.1478 20.6071 23.4759 20.3909 22.718C20.1747 21.9601 20.1997 21.1537 20.4623 20.4106C20.7249 19.6674 21.2122 19.0244 21.8565 18.5706C22.5009 18.1168 23.2705 17.8747 24.0587 17.8778Z" fill="url(#paint5_linear_181773_4635)"/>
<defs>
<linearGradient id="paint0_linear_181773_4635" x1="24.3333" y1="-0.000118935" x2="24.3333" y2="47.0801" gradientUnits="userSpaceOnUse">
<stop stop-color="#FFFCD9"/>
<stop offset="0.778" stop-color="#FFEBA8"/>
<stop offset="1" stop-color="#FFE699"/>
</linearGradient>
<linearGradient id="paint1_linear_181773_4635" x1="36.5366" y1="8.40002" x2="36.5366" y2="38.5231" gradientUnits="userSpaceOnUse">
<stop stop-color="#FD6700"/>
<stop offset="1" stop-color="#FFCE00"/>
</linearGradient>
<linearGradient id="paint2_linear_181773_4635" x1="24.3333" y1="8.4" x2="24.3333" y2="38.5231" gradientUnits="userSpaceOnUse">
<stop stop-color="#FD6700"/>
<stop offset="1" stop-color="#FFCE00"/>
</linearGradient>
<linearGradient id="paint3_linear_181773_4635" x1="12.1299" y1="8.40002" x2="12.1299" y2="38.5231" gradientUnits="userSpaceOnUse">
<stop stop-color="#FD6700"/>
<stop offset="1" stop-color="#FFCE00"/>
</linearGradient>
<linearGradient id="paint4_linear_181773_4635" x1="24.0586" y1="-25.1087" x2="24.0586" y2="65.2605" gradientUnits="userSpaceOnUse">
<stop stop-color="#FD6700"/>
<stop offset="1" stop-color="#FFCE00"/>
</linearGradient>
<linearGradient id="paint5_linear_181773_4635" x1="24.0587" y1="-216.099" x2="24.0587" y2="246.993" gradientUnits="userSpaceOnUse">
<stop stop-color="#FD6700"/>
<stop offset="1" stop-color="#FFCE00"/>
</linearGradient>
</defs>
</svg>
