<svg width="46" height="46" viewBox="0 0 46 46" fill="none" xmlns="http://www.w3.org/2000/svg">
<path d="M45.406 9.71775C45.2724 7.34142 44.2682 5.09754 42.5852 3.41456C40.9022 1.73158 38.6583 0.727401 36.282 0.593753C27.4344 0.093749 18.5656 0.093749 9.71801 0.593753C7.34174 0.727616 5.09799 1.73187 3.41506 3.4148C1.73212 5.09774 0.727871 7.34149 0.594008 9.71775C0.0939896 18.5657 0.0939896 27.4348 0.594008 36.2828C0.727871 38.659 1.73212 40.9028 3.41506 42.5857C5.09799 44.2686 7.34174 45.2729 9.71801 45.4067C18.5656 45.908 27.4344 45.908 36.282 45.4067C38.6583 45.2731 40.9022 44.2689 42.5852 42.5859C44.2682 40.903 45.2724 38.6591 45.406 36.2828C45.906 27.4348 45.906 18.5657 45.406 9.71775Z" fill="#F6FFED"/>
<path d="M34 20.25H33.75V19C33.75 16.1489 32.6174 13.4146 30.6014 11.3986C28.5854 9.38259 25.8511 8.25 23 8.25C20.1489 8.25 17.4146 9.38259 15.3986 11.3986C13.3826 13.4146 12.25 16.1489 12.25 19V20.25H12C11.0058 20.2511 10.0526 20.6465 9.34952 21.3495C8.64649 22.0526 8.25106 23.0058 8.25 24V28C8.25106 28.9942 8.64649 29.9474 9.34952 30.6505C10.0526 31.3535 11.0058 31.7489 12 31.75H16.75V20.25H13.75V19C13.75 16.5467 14.7246 14.194 16.4593 12.4593C18.194 10.7246 20.5467 9.75 23 9.75C25.4533 9.75 27.806 10.7246 29.5407 12.4593C31.2754 14.194 32.25 16.5467 32.25 19V20.25H29.25V31.75H32.25V34.25H26.75V32.25H20.25V37.75H26.75V35.75H33.75V31.75H34C34.9942 31.7489 35.9475 31.3535 36.6505 30.6505C37.3535 29.9474 37.7489 28.9942 37.75 28V24C37.7489 23.0058 37.3535 22.0526 36.6505 21.3495C35.9475 20.6465 34.9942 20.2511 34 20.25Z" fill="#3B6834"/>
</svg>
