<svg width="24" height="24" viewBox="0 0 24 24" fill="none" xmlns="http://www.w3.org/2000/svg">
<path d="M19.251 4.0537C20.2029 4.52625 21.0764 5.14246 21.841 5.8807L21.434 6.5077C21.404 6.5027 21.38 6.5077 21.369 6.4977C20.124 5.3877 18.704 5.2197 17.209 5.8107C14.567 6.8557 13.001 8.87069 12.428 11.6627C12.018 13.6567 12.226 15.6697 12.622 17.6457C12.9003 19.0311 13.295 20.3906 13.802 21.7097C13.825 21.7717 13.843 21.6767 13.871 21.9997H4.28896C4.27496 21.6767 4.25396 21.6367 4.24896 21.4957C4.18096 19.7607 4.43396 17.9787 4.82496 16.2987C5.58896 13.0157 6.95196 9.99369 8.82796 7.22369C9.93596 5.5867 11.428 4.3847 13.298 3.7137C15.329 2.9837 17.314 3.0827 19.251 4.0537ZM2.37096 16.9017L4.24896 17.0457L3.92496 18.9647L2.15796 18.7487L2.37096 16.9017ZM5.83896 11.3877L5.33396 12.8277L3.63996 12.2777L4.17696 10.7277L5.83896 11.3877ZM13.683 20.0427C13.62 20.0377 13.526 19.9697 13.508 19.9127C13.391 19.5267 13.29 19.1357 13.175 18.7117C13.687 18.7117 14.169 18.7087 14.65 18.7157C14.703 18.7157 14.781 18.7617 14.805 18.8077C15.016 19.2377 15.218 19.6717 15.445 20.1527C14.819 20.1147 14.251 20.0857 13.683 20.0427ZM8.65596 6.6937L7.68196 7.87669L6.38396 6.9897L7.39396 5.8437L8.65596 6.6937ZM12.677 15.3017C12.691 14.9287 12.717 14.5567 12.742 14.1267C13.205 14.3767 13.628 14.6007 14.046 14.8367C14.09 14.8607 14.118 14.9467 14.122 15.0077C14.146 15.3427 14.16 15.6787 14.18 16.0807C13.68 15.8617 13.22 15.6637 12.766 15.4567C12.721 15.4367 12.676 15.3537 12.677 15.3017ZM12.303 3.6617L11.114 4.3647L10.248 3.2927L11.438 2.66371L12.303 3.6617ZM12.845 11.5917C12.962 11.3197 13.102 11.0567 13.248 10.7637C13.578 11.0197 13.897 11.2607 14.206 11.5137C14.248 11.5487 14.266 11.6507 14.253 11.7127C14.18 12.0597 14.095 12.4047 14.003 12.7927C13.607 12.4467 13.25 12.1437 12.904 11.8277C12.854 11.7807 12.819 11.6527 12.845 11.5927V11.5917ZM14.821 3.1367C14.765 3.1357 14.677 3.0497 14.663 2.9887C14.593 2.70071 14.543 2.40771 14.478 2.07471C14.965 2.09871 15.409 2.11271 15.851 2.14871C15.923 2.15471 16.03 2.25071 16.046 2.32271C16.102 2.56471 16.124 2.81471 16.17 3.1437C15.704 3.1437 15.263 3.1497 14.821 3.1367ZM15.359 8.89069C15.243 9.11069 15.118 9.32469 14.977 9.57369L13.933 8.39669L14.688 7.69169C14.921 8.04869 15.147 8.38869 15.363 8.73269C15.387 8.77069 15.381 8.84869 15.359 8.89069ZM16.174 6.5477L17.149 6.2977C17.399 6.8647 17.331 7.0067 16.625 7.39969L16.174 6.5477ZM19.553 3.9237C19.493 3.8857 19.477 3.7467 19.472 3.6537C19.465 3.5307 19.49 3.4057 19.507 3.2277L20.683 4.1037L20.473 4.4367C20.157 4.2647 19.847 4.1067 19.553 3.9237ZM19.143 6.6197V6.0717C19.46 6.1447 19.937 6.2147 20.254 6.2857V6.7237C19.937 6.6887 19.46 6.6547 19.143 6.6197Z" fill="#3B6834"/>
</svg>
