<svg width="48" height="48" viewBox="0 0 48 48" fill="none" xmlns="http://www.w3.org/2000/svg">
<path d="M47.6049 10.0073C47.4641 7.50379 46.4062 5.13985 44.6332 3.36681C42.8602 1.59378 40.4962 0.535865 37.9927 0.395066C28.7081 -0.131689 19.2919 -0.131689 10.0073 0.395066C7.50387 0.536092 5.14006 1.59408 3.36707 3.36707C1.59408 5.14006 0.536092 7.50387 0.395066 10.0073C-0.131689 19.2919 -0.131689 28.7071 0.395066 37.9927C0.536092 40.4961 1.59408 42.8599 3.36707 44.6329C5.14006 46.4059 7.50387 47.4639 10.0073 47.6049C19.3161 48.1338 28.686 48.1327 37.9927 47.6049C40.4962 47.4641 42.8602 46.4062 44.6332 44.6332C46.4062 42.8602 47.4641 40.4962 47.6049 37.9927C48.1317 28.7081 48.1317 19.2929 47.6049 10.0073Z" fill="#F6FFED"/>
<path d="M34.1693 23.2372H34.3849C34.2234 21.0065 33.3447 18.8879 31.8802 17.1976L31.7307 17.3481C31.5851 17.4864 31.392 17.5636 31.1912 17.5636C30.9904 17.5636 30.7972 17.4864 30.6517 17.3481C30.5089 17.2051 30.4286 17.0112 30.4286 16.8091C30.4286 16.607 30.5089 16.4131 30.6517 16.2701L30.8022 16.1196C29.1119 14.6551 26.9932 13.7764 24.7625 13.6149V13.8305C24.7625 14.0327 24.6822 14.2267 24.5392 14.3698C24.3961 14.5128 24.2021 14.5932 23.9998 14.5932C23.7975 14.5932 23.6035 14.5128 23.4605 14.3698C23.3175 14.2267 23.2371 14.0327 23.2371 13.8305V13.6149C21.0064 13.7764 18.8878 14.6551 17.1975 16.1196L17.348 16.2691C17.4908 16.4121 17.571 16.606 17.571 16.8081C17.571 17.0102 17.4908 17.2041 17.348 17.3471C17.2037 17.4874 17.0104 17.5659 16.8092 17.5661C16.6079 17.5663 16.4145 17.4881 16.27 17.3481L16.1195 17.1976C14.6549 18.8879 13.7763 21.0065 13.6147 23.2372H13.8303C14.0326 23.2372 14.2266 23.3176 14.3697 23.4606C14.5127 23.6037 14.5931 23.7977 14.5931 24C14.5931 24.2022 14.5127 24.3962 14.3697 24.5393C14.2266 24.6823 14.0326 24.7627 13.8303 24.7627H13.6147C13.7763 26.9934 14.6549 29.112 16.1195 30.8023L16.269 30.6518C16.3393 30.5789 16.4234 30.5208 16.5165 30.4808C16.6095 30.4408 16.7096 30.4197 16.8109 30.4187C16.9121 30.4178 17.0126 30.4371 17.1063 30.4754C17.2001 30.5137 17.2853 30.5703 17.3569 30.6419C17.4286 30.7134 17.4852 30.7986 17.5236 30.8923C17.562 30.986 17.5814 31.0864 17.5805 31.1877C17.5797 31.289 17.5587 31.3891 17.5188 31.4821C17.4788 31.5752 17.4208 31.6594 17.348 31.7298L17.1975 31.8803C18.8878 33.3449 21.0064 34.2235 23.2371 34.385V34.1694C23.2371 33.9672 23.3175 33.7732 23.4605 33.6301C23.6035 33.4871 23.7975 33.4067 23.9998 33.4067C24.2021 33.4067 24.3961 33.4871 24.5392 33.6301C24.6822 33.7732 24.7625 33.9672 24.7625 34.1694V34.385C26.9932 34.2235 29.1119 33.3449 30.8022 31.8803L30.6517 31.7308C30.5788 31.6605 30.5207 31.5763 30.4807 31.4833C30.4406 31.3903 30.4196 31.2902 30.4186 31.1889C30.4177 31.0877 30.4369 30.9872 30.4753 30.8935C30.5136 30.7997 30.5702 30.7145 30.6417 30.6429C30.7133 30.5712 30.7984 30.5146 30.8922 30.4762C30.9859 30.4378 31.0863 30.4184 31.1876 30.4193C31.2888 30.4201 31.3889 30.4411 31.482 30.481C31.5751 30.5209 31.6593 30.579 31.7297 30.6518L31.8802 30.8023C33.3447 29.112 34.2234 26.9934 34.3849 24.7627H34.1693C33.967 24.7627 33.773 24.6823 33.63 24.5393C33.487 24.3962 33.4066 24.2022 33.4066 24C33.4066 23.7977 33.487 23.6037 33.63 23.4606C33.773 23.3176 33.967 23.2372 34.1693 23.2372ZM28.6066 28.6067C28.4611 28.7448 28.2682 28.8217 28.0676 28.8217C27.8671 28.8217 27.6741 28.7448 27.5286 28.6067L25.3534 26.4325C24.941 26.6682 24.4748 26.7936 23.9998 26.7966C23.2584 26.7958 22.5475 26.5009 22.0232 25.9766C21.4989 25.4523 21.204 24.7414 21.2032 24C21.2032 22.7237 22.0676 21.6569 23.2371 21.3223V16.8813C23.2371 16.679 23.3175 16.485 23.4605 16.342C23.6035 16.199 23.7975 16.1186 23.9998 16.1186C24.2021 16.1186 24.3961 16.199 24.5392 16.342C24.6822 16.485 24.7625 16.679 24.7625 16.8813V21.3223C25.932 21.6569 26.7964 22.7237 26.7964 24C26.7964 24.4932 26.6571 24.9508 26.4324 25.3535L28.6066 27.5288C28.7494 27.6718 28.8297 27.8656 28.8297 28.0677C28.8297 28.2699 28.7494 28.4637 28.6066 28.6067Z" fill="#52C41A"/>
<path d="M24.0002 25.2711C24.7022 25.2711 25.2714 24.702 25.2714 23.9999C25.2714 23.2979 24.7022 22.7288 24.0002 22.7288C23.2981 22.7288 22.729 23.2979 22.729 23.9999C22.729 24.702 23.2981 25.2711 24.0002 25.2711Z" fill="#52C41A"/>
<path d="M24 9C15.7292 9 9 15.7292 9 24C9 32.2708 15.7292 39 24 39C32.2708 39 39 32.2708 39 24C39 15.7292 32.2708 9 24 9ZM24 35.9492C17.4112 35.9492 12.0508 30.5888 12.0508 24C12.0508 17.4112 17.4112 12.0508 24 12.0508C30.5888 12.0508 35.9492 17.4112 35.9492 24C35.9492 30.5888 30.5888 35.9492 24 35.9492Z" fill="#52C41A"/>
</svg>
