<svg width="24" height="24" viewBox="0 0 24 24" fill="none" xmlns="http://www.w3.org/2000/svg">
<path d="M16.086 18.7547C13.73 20.1207 10.491 20.2617 7.232 18.8587C4.593 17.7317 2.404 15.7577 1 13.5027C1.674 14.0657 2.46 14.5177 3.302 14.9127C6.667 16.4957 10.032 16.3877 12.4 14.9157L12.397 14.9117C9.028 12.3177 6.165 8.93474 4.032 6.17175C3.582 5.72175 3.246 5.15775 2.909 4.64975C5.491 7.01774 9.589 10.0057 11.049 10.8527C7.962 7.58174 5.211 3.52275 5.323 3.63475C10.207 8.59674 14.755 11.4157 14.755 11.4157C14.905 11.5017 15.021 11.5727 15.115 11.6357C15.213 11.3837 15.299 11.1227 15.372 10.8527C16.158 7.97674 15.26 4.70575 13.295 1.99976C17.842 4.76275 20.537 9.94974 19.414 14.2917C19.384 14.4087 19.353 14.5247 19.319 14.6377L19.358 14.6867C21.603 17.5067 20.986 20.4947 20.705 19.9307C19.487 17.5367 17.232 18.2687 16.085 18.7547H16.086Z" fill="#3B6834"/>
</svg>
