<svg width="26" height="28" viewBox="0 0 26 28" fill="none" xmlns="http://www.w3.org/2000/svg">
<path d="M15.6605 2.45996H10.3397C10.2322 2.45996 10.127 2.49168 10.0375 2.55107C7.97122 3.92132 5.82266 4.86173 3.65145 5.34626C3.5301 5.37336 3.42161 5.441 3.34385 5.53802C3.26609 5.63505 3.22371 5.75567 3.22369 5.88001V13.984C3.22369 16.3027 4.3339 18.805 6.34979 21.03C8.15956 23.0274 10.5197 24.6202 12.8249 25.3998C12.9386 25.4382 13.0617 25.4382 13.1753 25.3998C15.4806 24.6202 17.8407 23.0274 19.6504 21.03C21.6663 18.805 22.7765 16.3027 22.7765 13.984V5.88001C22.7765 5.75566 22.7342 5.63503 22.6564 5.538C22.5786 5.44097 22.4701 5.37334 22.3488 5.34626C20.1776 4.86178 18.029 3.92132 15.9628 2.55107C15.8731 2.49166 15.768 2.45997 15.6605 2.45996ZM21.6828 13.984C21.6828 16.0307 20.6732 18.2722 18.84 20.2956C17.2224 22.0809 15.0519 23.568 13.0002 24.3027C10.9484 23.568 8.77791 22.0809 7.16037 20.2956C5.32713 18.2722 4.31749 16.0307 4.31749 13.984V6.3127C6.4246 5.78731 8.503 4.86047 10.5036 3.55371H15.4968C17.4974 4.86047 19.5758 5.78731 21.6829 6.3127V13.984H21.6828ZM24.734 3.22466C21.372 2.95723 18.5327 1.37824 16.7427 0.100742C16.65 0.0345794 16.5389 -0.000981012 16.425 -0.000976562H9.57526C9.46134 -0.000976562 9.35027 0.0345703 9.25752 0.100742C7.4676 1.37824 4.62823 2.95723 1.2662 3.22466C1.1291 3.23556 1.00114 3.29773 0.907822 3.39877C0.814507 3.49981 0.762689 3.6323 0.762695 3.76984V13.9839C0.762695 15.6325 1.15891 17.2924 1.94028 18.9173C2.64039 20.3733 3.63177 21.7695 4.88684 23.0672C7.15681 25.4144 10.1369 27.2511 12.8586 27.9803C12.9513 28.0053 13.0489 28.0053 13.1416 27.9804C15.8633 27.2511 18.8434 25.4145 21.1134 23.0673C22.3685 21.7696 23.3598 20.3733 24.06 18.9173C24.8413 17.2924 25.2375 15.6325 25.2375 13.984V3.76984C25.2375 3.6323 25.1857 3.49981 25.0924 3.39877C24.9991 3.29773 24.8711 3.23556 24.734 3.22466ZM24.1438 13.984C24.1438 20.3038 17.6062 25.5795 13.0001 26.8849C8.39401 25.5795 1.85645 20.3038 1.85645 13.984V4.26558C4.50677 3.95605 7.2214 2.86591 9.74911 1.09277H16.2511C18.7788 2.86591 21.4934 3.95605 24.1437 4.26558L24.1438 13.984ZM9.94664 13.0819C9.94664 14.7656 11.3165 16.1353 13.0001 16.1353C14.6838 16.1353 16.0536 14.7655 16.0536 13.0819C16.0536 11.3982 14.6838 10.0284 13.0001 10.0284C11.3165 10.0284 9.94664 11.3981 9.94664 13.0819ZM14.9598 13.0819C14.9598 14.1625 14.0807 15.0416 13.0001 15.0416C11.9195 15.0416 11.0404 14.1624 11.0404 13.0819C11.0404 12.0013 11.9195 11.1221 13.0001 11.1221C14.0807 11.1221 14.9598 12.0012 14.9598 13.0819ZM15.0187 8.20838C14.906 8.16173 14.5384 7.97208 14.5384 7.4911C14.5384 6.97283 14.1168 6.55119 13.5985 6.55119H12.4017C11.8834 6.55119 11.4618 6.97283 11.4618 7.4911C11.4618 7.97208 11.0941 8.16173 10.9814 8.20838C10.8687 8.25503 10.4746 8.38092 10.1347 8.04087C9.95714 7.8633 9.72106 7.76552 9.46999 7.76552C9.21891 7.76552 8.98283 7.8633 8.80531 8.04082L7.95913 8.887C7.78156 9.06452 7.68378 9.3006 7.68378 9.55167C7.68378 9.80274 7.78156 10.0388 7.95908 10.2163C8.29918 10.5564 8.17334 10.9505 8.12664 11.0632C8.07994 11.1758 7.89028 11.5435 7.40936 11.5435C6.89103 11.5435 6.46939 11.9651 6.46939 12.4835V13.6801C6.46939 14.1984 6.89103 14.6201 7.40936 14.6201C7.89028 14.6201 8.07999 14.9878 8.12664 15.1004C8.17329 15.2131 8.29913 15.6072 7.95908 15.9473C7.59262 16.3138 7.59262 16.9101 7.95908 17.2766L8.80537 18.1228C8.89245 18.2104 8.99603 18.2798 9.11011 18.327C9.22419 18.3743 9.34651 18.3984 9.46999 18.3981C9.72111 18.3981 9.95714 18.3003 10.1346 18.1228C10.3646 17.8928 10.6814 17.8298 10.9819 17.9543C11.2824 18.0788 11.4618 18.3473 11.4618 18.6725C11.4618 19.1908 11.8834 19.6125 12.4017 19.6125H13.5985C14.1168 19.6125 14.5384 19.1908 14.5384 18.6725C14.5384 18.1916 14.9061 18.0019 15.0187 17.9552C15.1315 17.9086 15.5255 17.7827 15.8656 18.1227C16.2318 18.4892 16.8281 18.4893 17.1949 18.1227L18.0412 17.2765C18.4076 16.91 18.4076 16.3137 18.0412 15.9472C17.701 15.6071 17.8269 15.213 17.8736 15.1003C17.9203 14.9876 18.1099 14.6199 18.5909 14.6199C19.1092 14.6199 19.5308 14.1983 19.5308 13.68V12.4833C19.5308 11.965 19.1092 11.5433 18.5909 11.5433C18.1099 11.5433 17.9202 11.1757 17.8736 11.063C17.8269 10.9503 17.7011 10.5562 18.0412 10.2162C18.1287 10.1291 18.1981 10.0255 18.2454 9.91141C18.2926 9.79732 18.3168 9.675 18.3165 9.55151C18.3165 9.30038 18.2187 9.06435 18.0412 8.88689L17.1949 8.04055C17.1078 7.95301 17.0042 7.88361 16.8901 7.83637C16.776 7.78912 16.6537 7.76497 16.5302 7.7653C16.4068 7.76496 16.2844 7.78911 16.1704 7.83637C16.0563 7.88362 15.9527 7.95304 15.8656 8.0406C15.5255 8.38098 15.1315 8.25509 15.0187 8.20838ZM16.5261 8.91877L17.1632 9.55588C16.704 10.0925 16.5877 10.8169 16.8631 11.4818C17.1384 12.1466 17.733 12.5765 18.437 12.6313V13.5323C17.733 13.587 17.1384 14.017 16.8631 14.6818C16.5877 15.3467 16.7041 16.0711 17.1632 16.6077L16.5261 17.2448C15.9894 16.7857 15.2651 16.6693 14.6002 16.9447C13.9353 17.2201 13.5054 17.8146 13.4506 18.5187H12.5496C12.4949 17.814 12.0651 17.2191 11.4004 16.9438C10.7358 16.6685 10.0112 16.7852 9.47409 17.2448L8.83698 16.6077C9.29613 16.0711 9.41245 15.3467 9.1371 14.6819C8.8617 14.017 8.26719 13.5871 7.56314 13.5323V12.6313C8.26719 12.5765 8.8617 12.1466 9.1371 11.4818C9.41245 10.8169 9.29608 10.0925 8.83698 9.55588L9.47409 8.91877C10.0107 9.37788 10.735 9.49425 11.4 9.2189C12.0649 8.94349 12.4948 8.34898 12.5496 7.64494H13.4506C13.5054 8.34898 13.9353 8.94355 14.6002 9.2189C15.2651 9.49425 15.9894 9.37793 16.5261 8.91877Z" fill="#52C41A"/>
</svg>
